%TF.GenerationSoftware,KiCad,Pcbnew,8.0.4*%
%TF.CreationDate,2024-08-19T01:28:38+08:00*%
%TF.ProjectId,cloak-xt,636c6f61-6b2d-4787-942e-6b696361645f,rev?*%
%TF.SameCoordinates,Original*%
%TF.FileFunction,Legend,Top*%
%TF.FilePolarity,Positive*%
%FSLAX46Y46*%
G04 Gerber Fmt 4.6, Leading zero omitted, Abs format (unit mm)*
G04 Created by KiCad (PCBNEW 8.0.4) date 2024-08-19 01:28:38*
%MOMM*%
%LPD*%
G01*
G04 APERTURE LIST*
%ADD10C,0.100000*%
%ADD11C,3.987800*%
%ADD12C,1.500000*%
%ADD13C,1.750000*%
%ADD14C,3.300000*%
G04 APERTURE END LIST*
D10*
X336672125Y-87353145D02*
X337005458Y-87353145D01*
X337148315Y-87876955D02*
X336672125Y-87876955D01*
X336672125Y-87876955D02*
X336672125Y-86876955D01*
X336672125Y-86876955D02*
X337148315Y-86876955D01*
X337576887Y-87876955D02*
X337576887Y-86876955D01*
X337576887Y-86876955D02*
X338148315Y-87876955D01*
X338148315Y-87876955D02*
X338148315Y-86876955D01*
X339195934Y-87781716D02*
X339148315Y-87829336D01*
X339148315Y-87829336D02*
X339005458Y-87876955D01*
X339005458Y-87876955D02*
X338910220Y-87876955D01*
X338910220Y-87876955D02*
X338767363Y-87829336D01*
X338767363Y-87829336D02*
X338672125Y-87734097D01*
X338672125Y-87734097D02*
X338624506Y-87638859D01*
X338624506Y-87638859D02*
X338576887Y-87448383D01*
X338576887Y-87448383D02*
X338576887Y-87305526D01*
X338576887Y-87305526D02*
X338624506Y-87115050D01*
X338624506Y-87115050D02*
X338672125Y-87019812D01*
X338672125Y-87019812D02*
X338767363Y-86924574D01*
X338767363Y-86924574D02*
X338910220Y-86876955D01*
X338910220Y-86876955D02*
X339005458Y-86876955D01*
X339005458Y-86876955D02*
X339148315Y-86924574D01*
X339148315Y-86924574D02*
X339195934Y-86972193D01*
X339576887Y-86972193D02*
X339624506Y-86924574D01*
X339624506Y-86924574D02*
X339719744Y-86876955D01*
X339719744Y-86876955D02*
X339957839Y-86876955D01*
X339957839Y-86876955D02*
X340053077Y-86924574D01*
X340053077Y-86924574D02*
X340100696Y-86972193D01*
X340100696Y-86972193D02*
X340148315Y-87067431D01*
X340148315Y-87067431D02*
X340148315Y-87162669D01*
X340148315Y-87162669D02*
X340100696Y-87305526D01*
X340100696Y-87305526D02*
X339529268Y-87876955D01*
X339529268Y-87876955D02*
X340148315Y-87876955D01*
X65209625Y-87353145D02*
X65542958Y-87353145D01*
X65685815Y-87876955D02*
X65209625Y-87876955D01*
X65209625Y-87876955D02*
X65209625Y-86876955D01*
X65209625Y-86876955D02*
X65685815Y-86876955D01*
X66114387Y-87876955D02*
X66114387Y-86876955D01*
X66114387Y-86876955D02*
X66685815Y-87876955D01*
X66685815Y-87876955D02*
X66685815Y-86876955D01*
X67733434Y-87781716D02*
X67685815Y-87829336D01*
X67685815Y-87829336D02*
X67542958Y-87876955D01*
X67542958Y-87876955D02*
X67447720Y-87876955D01*
X67447720Y-87876955D02*
X67304863Y-87829336D01*
X67304863Y-87829336D02*
X67209625Y-87734097D01*
X67209625Y-87734097D02*
X67162006Y-87638859D01*
X67162006Y-87638859D02*
X67114387Y-87448383D01*
X67114387Y-87448383D02*
X67114387Y-87305526D01*
X67114387Y-87305526D02*
X67162006Y-87115050D01*
X67162006Y-87115050D02*
X67209625Y-87019812D01*
X67209625Y-87019812D02*
X67304863Y-86924574D01*
X67304863Y-86924574D02*
X67447720Y-86876955D01*
X67447720Y-86876955D02*
X67542958Y-86876955D01*
X67542958Y-86876955D02*
X67685815Y-86924574D01*
X67685815Y-86924574D02*
X67733434Y-86972193D01*
X68685815Y-87876955D02*
X68114387Y-87876955D01*
X68400101Y-87876955D02*
X68400101Y-86876955D01*
X68400101Y-86876955D02*
X68304863Y-87019812D01*
X68304863Y-87019812D02*
X68209625Y-87115050D01*
X68209625Y-87115050D02*
X68114387Y-87162669D01*
%LPC*%
D11*
%TO.C,ENC2*%
X338386411Y-83119536D03*
D12*
X341886411Y-87119536D03*
X341886411Y-84619536D03*
X334886411Y-84619536D03*
X334886411Y-87119536D03*
%TD*%
D11*
%TO.C,S44*%
X66923911Y-153287036D03*
X90736411Y-153287036D03*
%TD*%
%TO.C,S62*%
X181223911Y-155827036D03*
X143123911Y-155827036D03*
%TD*%
%TO.C,ENC1*%
X66923911Y-83119536D03*
D12*
X70423911Y-87119536D03*
X70423911Y-84619536D03*
X63423911Y-84619536D03*
X63423911Y-87119536D03*
%TD*%
D11*
%TO.C,S41*%
X314573911Y-117727036D03*
X290761411Y-117727036D03*
%TD*%
%TO.C,S63*%
X247898911Y-155827036D03*
X133598911Y-155827036D03*
%TD*%
%TO.C,S64*%
X238373911Y-155827036D03*
X200273911Y-155827036D03*
%TD*%
D13*
%TO.C,MX59*%
X100578911Y-164082036D03*
D11*
X95498911Y-164082036D03*
D13*
X90418911Y-164082036D03*
D14*
X91688911Y-161542036D03*
X98038911Y-159002036D03*
%TD*%
D13*
%TO.C,MX20*%
X176778911Y-106932036D03*
D11*
X171698911Y-106932036D03*
D13*
X166618911Y-106932036D03*
D14*
X167888911Y-104392036D03*
X174238911Y-101852036D03*
%TD*%
D13*
%TO.C,MX1*%
X72003911Y-83119536D03*
D11*
X66923911Y-83119536D03*
D13*
X61843911Y-83119536D03*
D14*
X63113911Y-80579536D03*
X69463911Y-78039536D03*
%TD*%
D13*
%TO.C,MX22*%
X214878911Y-106932036D03*
D11*
X209798911Y-106932036D03*
D13*
X204718911Y-106932036D03*
D14*
X205988911Y-104392036D03*
X212338911Y-101852036D03*
%TD*%
D13*
%TO.C,MX17*%
X119628911Y-106932036D03*
D11*
X114548911Y-106932036D03*
D13*
X109468911Y-106932036D03*
D14*
X110738911Y-104392036D03*
X117088911Y-101852036D03*
%TD*%
D13*
%TO.C,MX53*%
X248216411Y-145032036D03*
D11*
X243136411Y-145032036D03*
D13*
X238056411Y-145032036D03*
D14*
X239326411Y-142492036D03*
X245676411Y-139952036D03*
%TD*%
D13*
%TO.C,MX14*%
X343466411Y-83119536D03*
D11*
X338386411Y-83119536D03*
D13*
X333306411Y-83119536D03*
D14*
X334576411Y-80579536D03*
X340926411Y-78039536D03*
%TD*%
D13*
%TO.C,MX12*%
X300603911Y-83119536D03*
D11*
X295523911Y-83119536D03*
D13*
X290443911Y-83119536D03*
D14*
X291713911Y-80579536D03*
X298063911Y-78039536D03*
%TD*%
D13*
%TO.C,MX56*%
X312510161Y-145032036D03*
D11*
X307430161Y-145032036D03*
D13*
X302350161Y-145032036D03*
D14*
X303620161Y-142492036D03*
X309970161Y-139952036D03*
%TD*%
D13*
%TO.C,MX60*%
X119628911Y-164082036D03*
D11*
X114548911Y-164082036D03*
D13*
X109468911Y-164082036D03*
D14*
X110738911Y-161542036D03*
X117088911Y-159002036D03*
%TD*%
D13*
%TO.C,MX34*%
X162491411Y-125982036D03*
D11*
X157411411Y-125982036D03*
D13*
X152331411Y-125982036D03*
D14*
X153601411Y-123442036D03*
X159951411Y-120902036D03*
%TD*%
D13*
%TO.C,MX13*%
X319653911Y-83119536D03*
D11*
X314573911Y-83119536D03*
D13*
X309493911Y-83119536D03*
D14*
X310763911Y-80579536D03*
X317113911Y-78039536D03*
%TD*%
D13*
%TO.C,MX46*%
X114866411Y-145032036D03*
D11*
X109786411Y-145032036D03*
D13*
X104706411Y-145032036D03*
D14*
X105976411Y-142492036D03*
X112326411Y-139952036D03*
%TD*%
D13*
%TO.C,MX42*%
X343466411Y-125982036D03*
D11*
X338386411Y-125982036D03*
D13*
X333306411Y-125982036D03*
D14*
X334576411Y-123442036D03*
X340926411Y-120902036D03*
%TD*%
D13*
%TO.C,MX45*%
X85656411Y-145032036D03*
D11*
X90736411Y-145032036D03*
D13*
X95816411Y-145032036D03*
D14*
X94546411Y-147572036D03*
X88196411Y-150112036D03*
%TD*%
D13*
%TO.C,MX29*%
X74385161Y-125982036D03*
D11*
X69305161Y-125982036D03*
D13*
X64225161Y-125982036D03*
D14*
X65495161Y-123442036D03*
X71845161Y-120902036D03*
%TD*%
D13*
%TO.C,MX7*%
X198305411Y-83119536D03*
D11*
X193225411Y-83119536D03*
D13*
X188145411Y-83119536D03*
D14*
X189415411Y-80579536D03*
X195765411Y-78039536D03*
%TD*%
%TO.C,MX30*%
X71527661Y-131062036D03*
X77877661Y-128522036D03*
D13*
X79147661Y-125982036D03*
D11*
X74067661Y-125982036D03*
D13*
X68987661Y-125982036D03*
%TD*%
%TO.C,MX8*%
X217355411Y-83119536D03*
D11*
X212275411Y-83119536D03*
D13*
X207195411Y-83119536D03*
D14*
X208465411Y-80579536D03*
X214815411Y-78039536D03*
%TD*%
D13*
%TO.C,MX16*%
X100578911Y-106932036D03*
D11*
X95498911Y-106932036D03*
D13*
X90418911Y-106932036D03*
D14*
X91688911Y-104392036D03*
X98038911Y-101852036D03*
%TD*%
D13*
%TO.C,MX33*%
X143441411Y-125982036D03*
D11*
X138361411Y-125982036D03*
D13*
X133281411Y-125982036D03*
D14*
X134551411Y-123442036D03*
X140901411Y-120902036D03*
%TD*%
D13*
%TO.C,MX54*%
X267266411Y-145032036D03*
D11*
X262186411Y-145032036D03*
D13*
X257106411Y-145032036D03*
D14*
X258376411Y-142492036D03*
X264726411Y-139952036D03*
%TD*%
D13*
%TO.C,MX65*%
X267266411Y-164082036D03*
D11*
X262186411Y-164082036D03*
D13*
X257106411Y-164082036D03*
D14*
X258376411Y-161542036D03*
X264726411Y-159002036D03*
%TD*%
D13*
%TO.C,MX24*%
X252978911Y-106932036D03*
D11*
X247898911Y-106932036D03*
D13*
X242818911Y-106932036D03*
D14*
X244088911Y-104392036D03*
X250438911Y-101852036D03*
%TD*%
D13*
%TO.C,MX31*%
X105341411Y-125982036D03*
D11*
X100261411Y-125982036D03*
D13*
X95181411Y-125982036D03*
D14*
X96451411Y-123442036D03*
X102801411Y-120902036D03*
%TD*%
D13*
%TO.C,MX3*%
X114866411Y-83119536D03*
D11*
X109786411Y-83119536D03*
D13*
X104706411Y-83119536D03*
D14*
X105976411Y-80579536D03*
X112326411Y-78039536D03*
%TD*%
D13*
%TO.C,MX18*%
X138678911Y-106932036D03*
D11*
X133598911Y-106932036D03*
D13*
X128518911Y-106932036D03*
D14*
X129788911Y-104392036D03*
X136138911Y-101852036D03*
%TD*%
D13*
%TO.C,MX6*%
X179255411Y-83119536D03*
D11*
X174175411Y-83119536D03*
D13*
X169095411Y-83119536D03*
D14*
X170365411Y-80579536D03*
X176715411Y-78039536D03*
%TD*%
D13*
%TO.C,MX41*%
X307747661Y-125982036D03*
D11*
X302667661Y-125982036D03*
D13*
X297587661Y-125982036D03*
D14*
X298857661Y-123442036D03*
X305207661Y-120902036D03*
%TD*%
D13*
%TO.C,MX25*%
X272028911Y-106932036D03*
D11*
X266948911Y-106932036D03*
D13*
X261868911Y-106932036D03*
D14*
X263138911Y-104392036D03*
X269488911Y-101852036D03*
%TD*%
D13*
%TO.C,MX11*%
X281553911Y-83119536D03*
D11*
X276473911Y-83119536D03*
D13*
X271393911Y-83119536D03*
D14*
X272663911Y-80579536D03*
X279013911Y-78039536D03*
%TD*%
D13*
%TO.C,MX5*%
X152966411Y-83119536D03*
D11*
X147886411Y-83119536D03*
D13*
X142806411Y-83119536D03*
D14*
X144076411Y-80579536D03*
X150426411Y-78039536D03*
%TD*%
D13*
%TO.C,MX2*%
X95816411Y-83119536D03*
D11*
X90736411Y-83119536D03*
D13*
X85656411Y-83119536D03*
D14*
X86926411Y-80579536D03*
X93276411Y-78039536D03*
%TD*%
D13*
%TO.C,MX38*%
X238691411Y-125982036D03*
D11*
X233611411Y-125982036D03*
D13*
X228531411Y-125982036D03*
D14*
X229801411Y-123442036D03*
X236151411Y-120902036D03*
%TD*%
D13*
%TO.C,MX48*%
X152966411Y-145032036D03*
D11*
X147886411Y-145032036D03*
D13*
X142806411Y-145032036D03*
D14*
X144076411Y-142492036D03*
X150426411Y-139952036D03*
%TD*%
D13*
%TO.C,MX52*%
X229166411Y-145032036D03*
D11*
X224086411Y-145032036D03*
D13*
X219006411Y-145032036D03*
D14*
X220276411Y-142492036D03*
X226626411Y-139952036D03*
%TD*%
D13*
%TO.C,MX47*%
X133916411Y-145032036D03*
D11*
X128836411Y-145032036D03*
D13*
X123756411Y-145032036D03*
D14*
X125026411Y-142492036D03*
X131376411Y-139952036D03*
%TD*%
D13*
%TO.C,MX68*%
X314891411Y-164082036D03*
D11*
X309811411Y-164082036D03*
D13*
X304731411Y-164082036D03*
D14*
X306001411Y-161542036D03*
X312351411Y-159002036D03*
%TD*%
D13*
%TO.C,MX21*%
X195828911Y-106932036D03*
D11*
X190748911Y-106932036D03*
D13*
X185668911Y-106932036D03*
D14*
X186938911Y-104392036D03*
X193288911Y-101852036D03*
%TD*%
D13*
%TO.C,MX64*%
X224403911Y-164082036D03*
D11*
X219323911Y-164082036D03*
D13*
X214243911Y-164082036D03*
D14*
X215513911Y-161542036D03*
X221863911Y-159002036D03*
%TD*%
D13*
%TO.C,MX19*%
X157728911Y-106932036D03*
D11*
X152648911Y-106932036D03*
D13*
X147568911Y-106932036D03*
D14*
X148838911Y-104392036D03*
X155188911Y-101852036D03*
%TD*%
D13*
%TO.C,MX69*%
X343466411Y-164082036D03*
D11*
X338386411Y-164082036D03*
D13*
X333306411Y-164082036D03*
D14*
X334576411Y-161542036D03*
X340926411Y-159002036D03*
%TD*%
D13*
%TO.C,MX43*%
X64225161Y-145032036D03*
D11*
X69305161Y-145032036D03*
D13*
X74385161Y-145032036D03*
D14*
X73115161Y-147572036D03*
X66765161Y-150112036D03*
%TD*%
D13*
%TO.C,MX9*%
X236405411Y-83119536D03*
D11*
X231325411Y-83119536D03*
D13*
X226245411Y-83119536D03*
D14*
X227515411Y-80579536D03*
X233865411Y-78039536D03*
%TD*%
D13*
%TO.C,MX49*%
X172016411Y-145032036D03*
D11*
X166936411Y-145032036D03*
D13*
X161856411Y-145032036D03*
D14*
X163126411Y-142492036D03*
X169476411Y-139952036D03*
%TD*%
D13*
%TO.C,MX51*%
X210116411Y-145032036D03*
D11*
X205036411Y-145032036D03*
D13*
X199956411Y-145032036D03*
D14*
X201226411Y-142492036D03*
X207576411Y-139952036D03*
%TD*%
D13*
%TO.C,MX23*%
X233928911Y-106932036D03*
D11*
X228848911Y-106932036D03*
D13*
X223768911Y-106932036D03*
D14*
X225038911Y-104392036D03*
X231388911Y-101852036D03*
%TD*%
D13*
%TO.C,MX39*%
X257741411Y-125982036D03*
D11*
X252661411Y-125982036D03*
D13*
X247581411Y-125982036D03*
D14*
X248851411Y-123442036D03*
X255201411Y-120902036D03*
%TD*%
D13*
%TO.C,MX35*%
X181541411Y-125982036D03*
D11*
X176461411Y-125982036D03*
D13*
X171381411Y-125982036D03*
D14*
X172651411Y-123442036D03*
X179001411Y-120902036D03*
%TD*%
D13*
%TO.C,MX40*%
X276791411Y-125982036D03*
D11*
X271711411Y-125982036D03*
D13*
X266631411Y-125982036D03*
D14*
X267901411Y-123442036D03*
X274251411Y-120902036D03*
%TD*%
D13*
%TO.C,MX36*%
X200591411Y-125982036D03*
D11*
X195511411Y-125982036D03*
D13*
X190431411Y-125982036D03*
D14*
X191701411Y-123442036D03*
X198051411Y-120902036D03*
%TD*%
%TO.C,MX62*%
X164713911Y-159002036D03*
X158363911Y-161542036D03*
D13*
X157093911Y-164082036D03*
D11*
X162173911Y-164082036D03*
D13*
X167253911Y-164082036D03*
%TD*%
%TO.C,MX57*%
X343466411Y-145032036D03*
D11*
X338386411Y-145032036D03*
D13*
X333306411Y-145032036D03*
D14*
X334576411Y-142492036D03*
X340926411Y-139952036D03*
%TD*%
D13*
%TO.C,MX28*%
X343466411Y-106932036D03*
D11*
X338386411Y-106932036D03*
D13*
X333306411Y-106932036D03*
D14*
X334576411Y-104392036D03*
X340926411Y-101852036D03*
%TD*%
D13*
%TO.C,MX61*%
X114231411Y-164082036D03*
D11*
X119311411Y-164082036D03*
D13*
X124391411Y-164082036D03*
D14*
X123121411Y-166622036D03*
X116771411Y-169162036D03*
%TD*%
%TO.C,MX67*%
X288538911Y-159002036D03*
X282188911Y-161542036D03*
D13*
X280918911Y-164082036D03*
D11*
X285998911Y-164082036D03*
D13*
X291078911Y-164082036D03*
%TD*%
%TO.C,MX37*%
X219641411Y-125982036D03*
D11*
X214561411Y-125982036D03*
D13*
X209481411Y-125982036D03*
D14*
X210751411Y-123442036D03*
X217101411Y-120902036D03*
%TD*%
D13*
%TO.C,MX15*%
X76766411Y-106932036D03*
D11*
X71686411Y-106932036D03*
D13*
X66606411Y-106932036D03*
D14*
X67876411Y-104392036D03*
X74226411Y-101852036D03*
%TD*%
D13*
%TO.C,MX32*%
X124391411Y-125982036D03*
D11*
X119311411Y-125982036D03*
D13*
X114231411Y-125982036D03*
D14*
X115501411Y-123442036D03*
X121851411Y-120902036D03*
%TD*%
D13*
%TO.C,MX55*%
X286316411Y-145032036D03*
D11*
X281236411Y-145032036D03*
D13*
X276156411Y-145032036D03*
D14*
X277426411Y-142492036D03*
X283776411Y-139952036D03*
%TD*%
D13*
%TO.C,MX44*%
X83910161Y-145032036D03*
D11*
X78830161Y-145032036D03*
D13*
X73750161Y-145032036D03*
D14*
X75020161Y-142492036D03*
X81370161Y-139952036D03*
%TD*%
D13*
%TO.C,MX27*%
X319653911Y-106932036D03*
D11*
X314573911Y-106932036D03*
D13*
X309493911Y-106932036D03*
D14*
X310763911Y-104392036D03*
X317113911Y-101852036D03*
%TD*%
D13*
%TO.C,MX66*%
X261868911Y-164082036D03*
D11*
X266948911Y-164082036D03*
D13*
X272028911Y-164082036D03*
D14*
X270758911Y-166622036D03*
X264408911Y-169162036D03*
%TD*%
D13*
%TO.C,MX26*%
X295841411Y-106932036D03*
D11*
X290761411Y-106932036D03*
D13*
X285681411Y-106932036D03*
D14*
X286951411Y-104392036D03*
X293301411Y-101852036D03*
%TD*%
D13*
%TO.C,MX50*%
X191066411Y-145032036D03*
D11*
X185986411Y-145032036D03*
D13*
X180906411Y-145032036D03*
D14*
X182176411Y-142492036D03*
X188526411Y-139952036D03*
%TD*%
D13*
%TO.C,MX58*%
X76766411Y-164082036D03*
D11*
X71686411Y-164082036D03*
D13*
X66606411Y-164082036D03*
D14*
X67876411Y-161542036D03*
X74226411Y-159002036D03*
%TD*%
D13*
%TO.C,MX63*%
X195828911Y-164082036D03*
D11*
X190748911Y-164082036D03*
D13*
X185668911Y-164082036D03*
D14*
X186938911Y-161542036D03*
X193288911Y-159002036D03*
%TD*%
D13*
%TO.C,MX10*%
X262503911Y-83119536D03*
D11*
X257423911Y-83119536D03*
D13*
X252343911Y-83119536D03*
D14*
X253613911Y-80579536D03*
X259963911Y-78039536D03*
%TD*%
D13*
%TO.C,MX4*%
X133916411Y-83119536D03*
D11*
X128836411Y-83119536D03*
D13*
X123756411Y-83119536D03*
D14*
X125026411Y-80579536D03*
X131376411Y-78039536D03*
%TD*%
D11*
%TO.C,S1*%
X143123911Y-155827036D03*
X238373911Y-155827036D03*
%TD*%
%LPD*%
M02*
