%TF.GenerationSoftware,KiCad,Pcbnew,8.0.4*%
%TF.CreationDate,2024-08-19T01:28:38+08:00*%
%TF.ProjectId,cloak-xt,636c6f61-6b2d-4787-942e-6b696361645f,rev?*%
%TF.SameCoordinates,Original*%
%TF.FileFunction,Soldermask,Bot*%
%TF.FilePolarity,Negative*%
%FSLAX46Y46*%
G04 Gerber Fmt 4.6, Leading zero omitted, Abs format (unit mm)*
G04 Created by KiCad (PCBNEW 8.0.4) date 2024-08-19 01:28:38*
%MOMM*%
%LPD*%
G01*
G04 APERTURE LIST*
G04 Aperture macros list*
%AMRoundRect*
0 Rectangle with rounded corners*
0 $1 Rounding radius*
0 $2 $3 $4 $5 $6 $7 $8 $9 X,Y pos of 4 corners*
0 Add a 4 corners polygon primitive as box body*
4,1,4,$2,$3,$4,$5,$6,$7,$8,$9,$2,$3,0*
0 Add four circle primitives for the rounded corners*
1,1,$1+$1,$2,$3*
1,1,$1+$1,$4,$5*
1,1,$1+$1,$6,$7*
1,1,$1+$1,$8,$9*
0 Add four rect primitives between the rounded corners*
20,1,$1+$1,$2,$3,$4,$5,0*
20,1,$1+$1,$4,$5,$6,$7,0*
20,1,$1+$1,$6,$7,$8,$9,0*
20,1,$1+$1,$8,$9,$2,$3,0*%
%AMFreePoly0*
4,1,18,-0.410000,0.593000,-0.403758,0.624380,-0.385983,0.650983,-0.359380,0.668758,-0.328000,0.675000,0.328000,0.675000,0.359380,0.668758,0.385983,0.650983,0.403758,0.624380,0.410000,0.593000,0.410000,-0.593000,0.403758,-0.624380,0.385983,-0.650983,0.359380,-0.668758,0.328000,-0.675000,0.000000,-0.675000,-0.410000,-0.265000,-0.410000,0.593000,-0.410000,0.593000,$1*%
G04 Aperture macros list end*
%ADD10RoundRect,0.082000X0.593000X-0.328000X0.593000X0.328000X-0.593000X0.328000X-0.593000X-0.328000X0*%
%ADD11FreePoly0,90.000000*%
%ADD12RoundRect,0.082000X0.328000X0.593000X-0.328000X0.593000X-0.328000X-0.593000X0.328000X-0.593000X0*%
%ADD13FreePoly0,180.000000*%
%ADD14RoundRect,0.082000X-0.328000X-0.593000X0.328000X-0.593000X0.328000X0.593000X-0.328000X0.593000X0*%
%ADD15FreePoly0,0.000000*%
%ADD16RoundRect,0.082000X-0.593000X0.328000X-0.593000X-0.328000X0.593000X-0.328000X0.593000X0.328000X0*%
%ADD17FreePoly0,270.000000*%
%ADD18RoundRect,0.140000X-0.170000X0.140000X-0.170000X-0.140000X0.170000X-0.140000X0.170000X0.140000X0*%
%ADD19RoundRect,0.140000X-0.140000X-0.170000X0.140000X-0.170000X0.140000X0.170000X-0.140000X0.170000X0*%
%ADD20RoundRect,0.140000X0.170000X-0.140000X0.170000X0.140000X-0.170000X0.140000X-0.170000X-0.140000X0*%
%ADD21RoundRect,0.135000X-0.185000X0.135000X-0.185000X-0.135000X0.185000X-0.135000X0.185000X0.135000X0*%
%ADD22C,3.987800*%
%ADD23C,4.000000*%
%ADD24RoundRect,0.225000X0.375000X-0.225000X0.375000X0.225000X-0.375000X0.225000X-0.375000X-0.225000X0*%
%ADD25C,1.750000*%
%ADD26C,3.300000*%
%ADD27RoundRect,0.250000X1.025000X1.000000X-1.025000X1.000000X-1.025000X-1.000000X1.025000X-1.000000X0*%
%ADD28RoundRect,0.075000X0.075000X-0.662500X0.075000X0.662500X-0.075000X0.662500X-0.075000X-0.662500X0*%
%ADD29RoundRect,0.075000X0.662500X-0.075000X0.662500X0.075000X-0.662500X0.075000X-0.662500X-0.075000X0*%
%ADD30RoundRect,0.225000X0.225000X0.375000X-0.225000X0.375000X-0.225000X-0.375000X0.225000X-0.375000X0*%
%ADD31RoundRect,0.250000X-1.025000X-1.000000X1.025000X-1.000000X1.025000X1.000000X-1.025000X1.000000X0*%
%ADD32RoundRect,0.225000X-0.375000X0.225000X-0.375000X-0.225000X0.375000X-0.225000X0.375000X0.225000X0*%
%ADD33R,1.000000X1.700000*%
%ADD34RoundRect,0.150000X0.150000X-0.587500X0.150000X0.587500X-0.150000X0.587500X-0.150000X-0.587500X0*%
%ADD35RoundRect,0.200000X0.200000X0.275000X-0.200000X0.275000X-0.200000X-0.275000X0.200000X-0.275000X0*%
%ADD36RoundRect,0.150000X0.587500X0.150000X-0.587500X0.150000X-0.587500X-0.150000X0.587500X-0.150000X0*%
%ADD37RoundRect,0.140000X0.140000X0.170000X-0.140000X0.170000X-0.140000X-0.170000X0.140000X-0.170000X0*%
%ADD38RoundRect,0.135000X0.135000X0.185000X-0.135000X0.185000X-0.135000X-0.185000X0.135000X-0.185000X0*%
%ADD39RoundRect,0.150000X-0.150000X-0.625000X0.150000X-0.625000X0.150000X0.625000X-0.150000X0.625000X0*%
%ADD40RoundRect,0.250000X-0.350000X-0.650000X0.350000X-0.650000X0.350000X0.650000X-0.350000X0.650000X0*%
%ADD41RoundRect,0.225000X-0.225000X-0.250000X0.225000X-0.250000X0.225000X0.250000X-0.225000X0.250000X0*%
G04 APERTURE END LIST*
D10*
%TO.C,LED10*%
X97589536Y-130347661D03*
X97589536Y-131847661D03*
X103039536Y-130347661D03*
D11*
X103039536Y-131847661D03*
%TD*%
D10*
%TO.C,LED4*%
X211889536Y-130347661D03*
X211889536Y-131847661D03*
X217339536Y-130347661D03*
D11*
X217339536Y-131847661D03*
%TD*%
D10*
%TO.C,LED3*%
X230886411Y-130391411D03*
X230886411Y-131891411D03*
X236336411Y-130391411D03*
D11*
X236336411Y-131891411D03*
%TD*%
D10*
%TO.C,LED2*%
X249936411Y-130391411D03*
X249936411Y-131891411D03*
X255386411Y-130391411D03*
D11*
X255386411Y-131891411D03*
%TD*%
D10*
%TO.C,LED9*%
X116586411Y-130391411D03*
X116586411Y-131891411D03*
X122036411Y-130391411D03*
D11*
X122036411Y-131891411D03*
%TD*%
D12*
%TO.C,LED12*%
X63792661Y-133866411D03*
X65292661Y-133866411D03*
X63792661Y-128416411D03*
D13*
X65292661Y-128416411D03*
%TD*%
D14*
%TO.C,LED11*%
X80020786Y-118044536D03*
X78520786Y-118044536D03*
X80020786Y-123494536D03*
D15*
X78520786Y-123494536D03*
%TD*%
D10*
%TO.C,LED8*%
X135689536Y-130347661D03*
X135689536Y-131847661D03*
X141139536Y-130347661D03*
D11*
X141139536Y-131847661D03*
%TD*%
D10*
%TO.C,LED7*%
X154739536Y-130347661D03*
X154739536Y-131847661D03*
X160189536Y-130347661D03*
D11*
X160189536Y-131847661D03*
%TD*%
D10*
%TO.C,LED6*%
X173789536Y-130347661D03*
X173789536Y-131847661D03*
X179239536Y-130347661D03*
D11*
X179239536Y-131847661D03*
%TD*%
D10*
%TO.C,LED5*%
X192839536Y-130347661D03*
X192839536Y-131847661D03*
X198289536Y-130347661D03*
D11*
X198289536Y-131847661D03*
%TD*%
D16*
%TO.C,LED1*%
X274489536Y-131847661D03*
X274489536Y-130347661D03*
X269039536Y-131847661D03*
D17*
X269039536Y-130347661D03*
%TD*%
D18*
%TO.C,C21*%
X61764536Y-132645786D03*
X61764536Y-133605786D03*
%TD*%
D19*
%TO.C,C20*%
X77556411Y-116060161D03*
X78516411Y-116060161D03*
%TD*%
D20*
%TO.C,C19*%
X95498911Y-131224536D03*
X95498911Y-130264536D03*
%TD*%
%TO.C,C18*%
X114548911Y-131184536D03*
X114548911Y-130224536D03*
%TD*%
%TO.C,C17*%
X133598911Y-131224536D03*
X133598911Y-130264536D03*
%TD*%
%TO.C,C16*%
X152648911Y-131141411D03*
X152648911Y-130181411D03*
%TD*%
%TO.C,C15*%
X171698911Y-131141411D03*
X171698911Y-130181411D03*
%TD*%
%TO.C,C14*%
X190748911Y-131141411D03*
X190748911Y-130181411D03*
%TD*%
%TO.C,C13*%
X209798911Y-130264536D03*
X209798911Y-131224536D03*
%TD*%
%TO.C,C12*%
X228848911Y-130264536D03*
X228848911Y-131224536D03*
%TD*%
D21*
%TO.C,R5*%
X278855161Y-131651411D03*
X278855161Y-130631411D03*
%TD*%
D20*
%TO.C,C11*%
X247898911Y-130264536D03*
X247898911Y-131224536D03*
%TD*%
D18*
%TO.C,C8*%
X276473911Y-130827661D03*
X276473911Y-129867661D03*
%TD*%
D22*
%TO.C,ENC2*%
X338386411Y-83119536D03*
%TD*%
D23*
%TO.C,S44*%
X66923911Y-138047036D03*
D22*
X66923911Y-153287036D03*
D23*
X90736411Y-138047036D03*
D22*
X90736411Y-153287036D03*
%TD*%
D23*
%TO.C,S62*%
X181223911Y-171067036D03*
D22*
X181223911Y-155827036D03*
D23*
X143123911Y-171067036D03*
D22*
X143123911Y-155827036D03*
%TD*%
%TO.C,ENC1*%
X66923911Y-83119536D03*
%TD*%
D23*
%TO.C,S41*%
X314573911Y-132967036D03*
D22*
X314573911Y-117727036D03*
D23*
X290761411Y-132967036D03*
D22*
X290761411Y-117727036D03*
%TD*%
D23*
%TO.C,S63*%
X247898911Y-171067036D03*
D22*
X247898911Y-155827036D03*
D23*
X133598911Y-171067036D03*
D22*
X133598911Y-155827036D03*
%TD*%
D23*
%TO.C,S64*%
X238373911Y-171067036D03*
D22*
X238373911Y-155827036D03*
D23*
X200273911Y-171067036D03*
D22*
X200273911Y-155827036D03*
%TD*%
D24*
%TO.C,D23*%
X232023911Y-106075786D03*
X232023911Y-109375786D03*
%TD*%
%TO.C,D16*%
X98673911Y-106075786D03*
X98673911Y-109375786D03*
%TD*%
%TO.C,D62*%
X165348911Y-163225786D03*
X165348911Y-166525786D03*
%TD*%
%TO.C,D7*%
X196400411Y-82263286D03*
X196400411Y-85563286D03*
%TD*%
%TO.C,D35*%
X179636411Y-125125786D03*
X179636411Y-128425786D03*
%TD*%
D25*
%TO.C,MX59*%
X100578911Y-164082036D03*
D22*
X95498911Y-164082036D03*
D25*
X90418911Y-164082036D03*
D26*
X91688911Y-161542036D03*
D27*
X88138911Y-161542036D03*
X101588911Y-159002036D03*
D26*
X98038911Y-159002036D03*
%TD*%
D24*
%TO.C,D41*%
X305842661Y-125125786D03*
X305842661Y-128425786D03*
%TD*%
D20*
%TO.C,C4*%
X320348911Y-127527036D03*
X320348911Y-128487036D03*
%TD*%
D28*
%TO.C,U1*%
X327598911Y-136419536D03*
X327098911Y-136419536D03*
X326598911Y-136419536D03*
X326098911Y-136419536D03*
X325598911Y-136419536D03*
X325098911Y-136419536D03*
X324598911Y-136419536D03*
X324098911Y-136419536D03*
X323598911Y-136419536D03*
X323098911Y-136419536D03*
X322598911Y-136419536D03*
X322098911Y-136419536D03*
D29*
X320686411Y-135007036D03*
X320686411Y-134507036D03*
X320686411Y-134007036D03*
X320686411Y-133507036D03*
X320686411Y-133007036D03*
X320686411Y-132507036D03*
X320686411Y-132007036D03*
X320686411Y-131507036D03*
X320686411Y-131007036D03*
X320686411Y-130507036D03*
X320686411Y-130007036D03*
X320686411Y-129507036D03*
D28*
X322098911Y-128094536D03*
X322598911Y-128094536D03*
X323098911Y-128094536D03*
X323598911Y-128094536D03*
X324098911Y-128094536D03*
X324598911Y-128094536D03*
X325098911Y-128094536D03*
X325598911Y-128094536D03*
X326098911Y-128094536D03*
X326598911Y-128094536D03*
X327098911Y-128094536D03*
X327598911Y-128094536D03*
D29*
X329011411Y-129507036D03*
X329011411Y-130007036D03*
X329011411Y-130507036D03*
X329011411Y-131007036D03*
X329011411Y-131507036D03*
X329011411Y-132007036D03*
X329011411Y-132507036D03*
X329011411Y-133007036D03*
X329011411Y-133507036D03*
X329011411Y-134007036D03*
X329011411Y-134507036D03*
X329011411Y-135007036D03*
%TD*%
D24*
%TO.C,D37*%
X217736411Y-125125786D03*
X217736411Y-128425786D03*
%TD*%
%TO.C,D3*%
X112961411Y-82263286D03*
X112961411Y-85563286D03*
%TD*%
D25*
%TO.C,MX20*%
X176778911Y-106932036D03*
D22*
X171698911Y-106932036D03*
D25*
X166618911Y-106932036D03*
D26*
X167888911Y-104392036D03*
D27*
X164338911Y-104392036D03*
X177788911Y-101852036D03*
D26*
X174238911Y-101852036D03*
%TD*%
D24*
%TO.C,D20*%
X174873911Y-106075786D03*
X174873911Y-109375786D03*
%TD*%
D25*
%TO.C,MX1*%
X72003911Y-83119536D03*
D22*
X66923911Y-83119536D03*
D25*
X61843911Y-83119536D03*
D26*
X63113911Y-80579536D03*
D27*
X59563911Y-80579536D03*
X73013911Y-78039536D03*
D26*
X69463911Y-78039536D03*
%TD*%
D25*
%TO.C,MX22*%
X214878911Y-106932036D03*
D22*
X209798911Y-106932036D03*
D25*
X204718911Y-106932036D03*
D26*
X205988911Y-104392036D03*
D27*
X202438911Y-104392036D03*
X215888911Y-101852036D03*
D26*
X212338911Y-101852036D03*
%TD*%
D24*
%TO.C,D8*%
X215450411Y-82263286D03*
X215450411Y-85563286D03*
%TD*%
%TO.C,D11*%
X279648911Y-82263286D03*
X279648911Y-85563286D03*
%TD*%
D25*
%TO.C,MX17*%
X119628911Y-106932036D03*
D22*
X114548911Y-106932036D03*
D25*
X109468911Y-106932036D03*
D26*
X110738911Y-104392036D03*
D27*
X107188911Y-104392036D03*
X120638911Y-101852036D03*
D26*
X117088911Y-101852036D03*
%TD*%
D24*
%TO.C,D59*%
X98673911Y-163225786D03*
X98673911Y-166525786D03*
%TD*%
%TO.C,D47*%
X132011411Y-144175786D03*
X132011411Y-147475786D03*
%TD*%
D25*
%TO.C,MX53*%
X248216411Y-145032036D03*
D22*
X243136411Y-145032036D03*
D25*
X238056411Y-145032036D03*
D26*
X239326411Y-142492036D03*
D27*
X235776411Y-142492036D03*
X249226411Y-139952036D03*
D26*
X245676411Y-139952036D03*
%TD*%
D24*
%TO.C,D54*%
X265361411Y-144175786D03*
X265361411Y-147475786D03*
%TD*%
D25*
%TO.C,MX14*%
X343466411Y-83119536D03*
D22*
X338386411Y-83119536D03*
D25*
X333306411Y-83119536D03*
D26*
X334576411Y-80579536D03*
D27*
X331026411Y-80579536D03*
X344476411Y-78039536D03*
D26*
X340926411Y-78039536D03*
%TD*%
D25*
%TO.C,MX12*%
X300603911Y-83119536D03*
D22*
X295523911Y-83119536D03*
D25*
X290443911Y-83119536D03*
D26*
X291713911Y-80579536D03*
D27*
X288163911Y-80579536D03*
X301613911Y-78039536D03*
D26*
X298063911Y-78039536D03*
%TD*%
D25*
%TO.C,MX56*%
X312510161Y-145032036D03*
D22*
X307430161Y-145032036D03*
D25*
X302350161Y-145032036D03*
D26*
X303620161Y-142492036D03*
D27*
X300070161Y-142492036D03*
X313520161Y-139952036D03*
D26*
X309970161Y-139952036D03*
%TD*%
D25*
%TO.C,MX60*%
X119628911Y-164082036D03*
D22*
X114548911Y-164082036D03*
D25*
X109468911Y-164082036D03*
D26*
X110738911Y-161542036D03*
D27*
X107188911Y-161542036D03*
X120638911Y-159002036D03*
D26*
X117088911Y-159002036D03*
%TD*%
D24*
%TO.C,D15*%
X74861411Y-106075786D03*
X74861411Y-109375786D03*
%TD*%
D19*
%TO.C,C3*%
X329578911Y-127757036D03*
X328618911Y-127757036D03*
%TD*%
D30*
%TO.C,D43*%
X72020786Y-153366411D03*
X75320786Y-153366411D03*
%TD*%
D25*
%TO.C,MX34*%
X162491411Y-125982036D03*
D22*
X157411411Y-125982036D03*
D25*
X152331411Y-125982036D03*
D26*
X153601411Y-123442036D03*
D27*
X150051411Y-123442036D03*
X163501411Y-120902036D03*
D26*
X159951411Y-120902036D03*
%TD*%
D25*
%TO.C,MX13*%
X319653911Y-83119536D03*
D22*
X314573911Y-83119536D03*
D25*
X309493911Y-83119536D03*
D26*
X310763911Y-80579536D03*
D27*
X307213911Y-80579536D03*
X320663911Y-78039536D03*
D26*
X317113911Y-78039536D03*
%TD*%
D25*
%TO.C,MX46*%
X114866411Y-145032036D03*
D22*
X109786411Y-145032036D03*
D25*
X104706411Y-145032036D03*
D26*
X105976411Y-142492036D03*
D27*
X102426411Y-142492036D03*
X115876411Y-139952036D03*
D26*
X112326411Y-139952036D03*
%TD*%
D25*
%TO.C,MX42*%
X343466411Y-125982036D03*
D22*
X338386411Y-125982036D03*
D25*
X333306411Y-125982036D03*
D26*
X334576411Y-123442036D03*
D27*
X331026411Y-123442036D03*
X344476411Y-120902036D03*
D26*
X340926411Y-120902036D03*
%TD*%
D25*
%TO.C,MX45*%
X85656411Y-145032036D03*
D22*
X90736411Y-145032036D03*
D25*
X95816411Y-145032036D03*
D26*
X94546411Y-147572036D03*
D31*
X98096411Y-147572036D03*
X84646411Y-150112036D03*
D26*
X88196411Y-150112036D03*
%TD*%
D32*
%TO.C,D45*%
X81211411Y-151841411D03*
X81211411Y-148541411D03*
%TD*%
D25*
%TO.C,MX29*%
X74385161Y-125982036D03*
D22*
X69305161Y-125982036D03*
D25*
X64225161Y-125982036D03*
D26*
X65495161Y-123442036D03*
D27*
X61945161Y-123442036D03*
X75395161Y-120902036D03*
D26*
X71845161Y-120902036D03*
%TD*%
D33*
%TO.C,BOOT1*%
X326877036Y-152150786D03*
X326877036Y-145850786D03*
X323077036Y-152150786D03*
X323077036Y-145850786D03*
%TD*%
D25*
%TO.C,MX7*%
X198305411Y-83119536D03*
D22*
X193225411Y-83119536D03*
D25*
X188145411Y-83119536D03*
D26*
X189415411Y-80579536D03*
D27*
X185865411Y-80579536D03*
X199315411Y-78039536D03*
D26*
X195765411Y-78039536D03*
%TD*%
%TO.C,MX30*%
X71527661Y-131062036D03*
D31*
X67977661Y-131062036D03*
X81427661Y-128522036D03*
D26*
X77877661Y-128522036D03*
D25*
X79147661Y-125982036D03*
D22*
X74067661Y-125982036D03*
D25*
X68987661Y-125982036D03*
%TD*%
%TO.C,MX8*%
X217355411Y-83119536D03*
D22*
X212275411Y-83119536D03*
D25*
X207195411Y-83119536D03*
D26*
X208465411Y-80579536D03*
D27*
X204915411Y-80579536D03*
X218365411Y-78039536D03*
D26*
X214815411Y-78039536D03*
%TD*%
D24*
%TO.C,D40*%
X274886411Y-125125786D03*
X274886411Y-128425786D03*
%TD*%
D25*
%TO.C,MX16*%
X100578911Y-106932036D03*
D22*
X95498911Y-106932036D03*
D25*
X90418911Y-106932036D03*
D26*
X91688911Y-104392036D03*
D27*
X88138911Y-104392036D03*
X101588911Y-101852036D03*
D26*
X98038911Y-101852036D03*
%TD*%
D24*
%TO.C,D19*%
X155823911Y-106075786D03*
X155823911Y-109375786D03*
%TD*%
D30*
%TO.C,D29*%
X85117661Y-120028911D03*
X88417661Y-120028911D03*
%TD*%
D25*
%TO.C,MX33*%
X143441411Y-125982036D03*
D22*
X138361411Y-125982036D03*
D25*
X133281411Y-125982036D03*
D26*
X134551411Y-123442036D03*
D27*
X131001411Y-123442036D03*
X144451411Y-120902036D03*
D26*
X140901411Y-120902036D03*
%TD*%
D18*
%TO.C,C5*%
X329348911Y-136987036D03*
X329348911Y-136027036D03*
%TD*%
D25*
%TO.C,MX54*%
X267266411Y-145032036D03*
D22*
X262186411Y-145032036D03*
D25*
X257106411Y-145032036D03*
D26*
X258376411Y-142492036D03*
D27*
X254826411Y-142492036D03*
X268276411Y-139952036D03*
D26*
X264726411Y-139952036D03*
%TD*%
D24*
%TO.C,D50*%
X189161411Y-144175786D03*
X189161411Y-147475786D03*
%TD*%
%TO.C,D48*%
X151061411Y-144175786D03*
X151061411Y-147475786D03*
%TD*%
%TO.C,D31*%
X103436411Y-125125786D03*
X103436411Y-128425786D03*
%TD*%
D25*
%TO.C,MX65*%
X267266411Y-164082036D03*
D22*
X262186411Y-164082036D03*
D25*
X257106411Y-164082036D03*
D26*
X258376411Y-161542036D03*
D27*
X254826411Y-161542036D03*
X268276411Y-159002036D03*
D26*
X264726411Y-159002036D03*
%TD*%
D25*
%TO.C,MX24*%
X252978911Y-106932036D03*
D22*
X247898911Y-106932036D03*
D25*
X242818911Y-106932036D03*
D26*
X244088911Y-104392036D03*
D27*
X240538911Y-104392036D03*
X253988911Y-101852036D03*
D26*
X250438911Y-101852036D03*
%TD*%
D25*
%TO.C,MX31*%
X105341411Y-125982036D03*
D22*
X100261411Y-125982036D03*
D25*
X95181411Y-125982036D03*
D26*
X96451411Y-123442036D03*
D27*
X92901411Y-123442036D03*
X106351411Y-120902036D03*
D26*
X102801411Y-120902036D03*
%TD*%
D25*
%TO.C,MX3*%
X114866411Y-83119536D03*
D22*
X109786411Y-83119536D03*
D25*
X104706411Y-83119536D03*
D26*
X105976411Y-80579536D03*
D27*
X102426411Y-80579536D03*
X115876411Y-78039536D03*
D26*
X112326411Y-78039536D03*
%TD*%
D25*
%TO.C,MX18*%
X138678911Y-106932036D03*
D22*
X133598911Y-106932036D03*
D25*
X128518911Y-106932036D03*
D26*
X129788911Y-104392036D03*
D27*
X126238911Y-104392036D03*
X139688911Y-101852036D03*
D26*
X136138911Y-101852036D03*
%TD*%
D25*
%TO.C,MX6*%
X179255411Y-83119536D03*
D22*
X174175411Y-83119536D03*
D25*
X169095411Y-83119536D03*
D26*
X170365411Y-80579536D03*
D27*
X166815411Y-80579536D03*
X180265411Y-78039536D03*
D26*
X176715411Y-78039536D03*
%TD*%
D25*
%TO.C,MX41*%
X307747661Y-125982036D03*
D22*
X302667661Y-125982036D03*
D25*
X297587661Y-125982036D03*
D26*
X298857661Y-123442036D03*
D27*
X295307661Y-123442036D03*
X308757661Y-120902036D03*
D26*
X305207661Y-120902036D03*
%TD*%
D25*
%TO.C,MX25*%
X272028911Y-106932036D03*
D22*
X266948911Y-106932036D03*
D25*
X261868911Y-106932036D03*
D26*
X263138911Y-104392036D03*
D27*
X259588911Y-104392036D03*
X273038911Y-101852036D03*
D26*
X269488911Y-101852036D03*
%TD*%
D25*
%TO.C,MX11*%
X281553911Y-83119536D03*
D22*
X276473911Y-83119536D03*
D25*
X271393911Y-83119536D03*
D26*
X272663911Y-80579536D03*
D27*
X269113911Y-80579536D03*
X282563911Y-78039536D03*
D26*
X279013911Y-78039536D03*
%TD*%
D25*
%TO.C,MX5*%
X152966411Y-83119536D03*
D22*
X147886411Y-83119536D03*
D25*
X142806411Y-83119536D03*
D26*
X144076411Y-80579536D03*
D27*
X140526411Y-80579536D03*
X153976411Y-78039536D03*
D26*
X150426411Y-78039536D03*
%TD*%
D25*
%TO.C,MX2*%
X95816411Y-83119536D03*
D22*
X90736411Y-83119536D03*
D25*
X85656411Y-83119536D03*
D26*
X86926411Y-80579536D03*
D27*
X83376411Y-80579536D03*
X96826411Y-78039536D03*
D26*
X93276411Y-78039536D03*
%TD*%
D25*
%TO.C,MX38*%
X238691411Y-125982036D03*
D22*
X233611411Y-125982036D03*
D25*
X228531411Y-125982036D03*
D26*
X229801411Y-123442036D03*
D27*
X226251411Y-123442036D03*
X239701411Y-120902036D03*
D26*
X236151411Y-120902036D03*
%TD*%
D24*
%TO.C,D52*%
X227261411Y-144175786D03*
X227261411Y-147475786D03*
%TD*%
D25*
%TO.C,MX48*%
X152966411Y-145032036D03*
D22*
X147886411Y-145032036D03*
D25*
X142806411Y-145032036D03*
D26*
X144076411Y-142492036D03*
D27*
X140526411Y-142492036D03*
X153976411Y-139952036D03*
D26*
X150426411Y-139952036D03*
%TD*%
D24*
%TO.C,D64*%
X222498911Y-163225786D03*
X222498911Y-166525786D03*
%TD*%
D33*
%TO.C,RST1*%
X317077036Y-145850786D03*
X317077036Y-152150786D03*
X320877036Y-145850786D03*
X320877036Y-152150786D03*
%TD*%
D24*
%TO.C,D2*%
X93911411Y-82263286D03*
X93911411Y-85563286D03*
%TD*%
%TO.C,D63*%
X193923911Y-163225786D03*
X193923911Y-166525786D03*
%TD*%
D25*
%TO.C,MX52*%
X229166411Y-145032036D03*
D22*
X224086411Y-145032036D03*
D25*
X219006411Y-145032036D03*
D26*
X220276411Y-142492036D03*
D27*
X216726411Y-142492036D03*
X230176411Y-139952036D03*
D26*
X226626411Y-139952036D03*
%TD*%
D25*
%TO.C,MX47*%
X133916411Y-145032036D03*
D22*
X128836411Y-145032036D03*
D25*
X123756411Y-145032036D03*
D26*
X125026411Y-142492036D03*
D27*
X121476411Y-142492036D03*
X134926411Y-139952036D03*
D26*
X131376411Y-139952036D03*
%TD*%
D24*
%TO.C,D34*%
X160586411Y-125125786D03*
X160586411Y-128425786D03*
%TD*%
D25*
%TO.C,MX68*%
X314891411Y-164082036D03*
D22*
X309811411Y-164082036D03*
D25*
X304731411Y-164082036D03*
D26*
X306001411Y-161542036D03*
D27*
X302451411Y-161542036D03*
X315901411Y-159002036D03*
D26*
X312351411Y-159002036D03*
%TD*%
D24*
%TO.C,D55*%
X284411411Y-144175786D03*
X284411411Y-147475786D03*
%TD*%
D25*
%TO.C,MX21*%
X195828911Y-106932036D03*
D22*
X190748911Y-106932036D03*
D25*
X185668911Y-106932036D03*
D26*
X186938911Y-104392036D03*
D27*
X183388911Y-104392036D03*
X196838911Y-101852036D03*
D26*
X193288911Y-101852036D03*
%TD*%
D24*
%TO.C,D67*%
X289173911Y-163225786D03*
X289173911Y-166525786D03*
%TD*%
%TO.C,D42*%
X341561411Y-125125786D03*
X341561411Y-128425786D03*
%TD*%
D34*
%TO.C,Q2*%
X337592661Y-94088286D03*
X336642661Y-95963286D03*
X338542661Y-95963286D03*
%TD*%
D24*
%TO.C,D18*%
X136773911Y-106075786D03*
X136773911Y-109375786D03*
%TD*%
D25*
%TO.C,MX64*%
X224403911Y-164082036D03*
D22*
X219323911Y-164082036D03*
D25*
X214243911Y-164082036D03*
D26*
X215513911Y-161542036D03*
D27*
X211963911Y-161542036D03*
X225413911Y-159002036D03*
D26*
X221863911Y-159002036D03*
%TD*%
D24*
%TO.C,D27*%
X317748911Y-106075786D03*
X317748911Y-109375786D03*
%TD*%
D25*
%TO.C,MX19*%
X157728911Y-106932036D03*
D22*
X152648911Y-106932036D03*
D25*
X147568911Y-106932036D03*
D26*
X148838911Y-104392036D03*
D27*
X145288911Y-104392036D03*
X158738911Y-101852036D03*
D26*
X155188911Y-101852036D03*
%TD*%
D35*
%TO.C,R2*%
X338720786Y-91850786D03*
X340370786Y-91850786D03*
%TD*%
D36*
%TO.C,U3*%
X329880161Y-115075786D03*
X331755161Y-116025786D03*
X331755161Y-114125786D03*
%TD*%
D25*
%TO.C,MX69*%
X343466411Y-164082036D03*
D22*
X338386411Y-164082036D03*
D25*
X333306411Y-164082036D03*
D26*
X334576411Y-161542036D03*
D27*
X331026411Y-161542036D03*
X344476411Y-159002036D03*
D26*
X340926411Y-159002036D03*
%TD*%
D25*
%TO.C,MX43*%
X64225161Y-145032036D03*
D22*
X69305161Y-145032036D03*
D25*
X74385161Y-145032036D03*
D26*
X73115161Y-147572036D03*
D31*
X76665161Y-147572036D03*
X63215161Y-150112036D03*
D26*
X66765161Y-150112036D03*
%TD*%
D19*
%TO.C,C6*%
X329328911Y-138007036D03*
X328368911Y-138007036D03*
%TD*%
D25*
%TO.C,MX9*%
X236405411Y-83119536D03*
D22*
X231325411Y-83119536D03*
D25*
X226245411Y-83119536D03*
D26*
X227515411Y-80579536D03*
D27*
X223965411Y-80579536D03*
X237415411Y-78039536D03*
D26*
X233865411Y-78039536D03*
%TD*%
D25*
%TO.C,MX49*%
X172016411Y-145032036D03*
D22*
X166936411Y-145032036D03*
D25*
X161856411Y-145032036D03*
D26*
X163126411Y-142492036D03*
D27*
X159576411Y-142492036D03*
X173026411Y-139952036D03*
D26*
X169476411Y-139952036D03*
%TD*%
D24*
%TO.C,D46*%
X112961411Y-144175786D03*
X112961411Y-147475786D03*
%TD*%
%TO.C,D22*%
X212973911Y-106075786D03*
X212973911Y-109375786D03*
%TD*%
%TO.C,D28*%
X341561411Y-106075786D03*
X341561411Y-109375786D03*
%TD*%
D25*
%TO.C,MX51*%
X210116411Y-145032036D03*
D22*
X205036411Y-145032036D03*
D25*
X199956411Y-145032036D03*
D26*
X201226411Y-142492036D03*
D27*
X197676411Y-142492036D03*
X211126411Y-139952036D03*
D26*
X207576411Y-139952036D03*
%TD*%
D25*
%TO.C,MX23*%
X233928911Y-106932036D03*
D22*
X228848911Y-106932036D03*
D25*
X223768911Y-106932036D03*
D26*
X225038911Y-104392036D03*
D27*
X221488911Y-104392036D03*
X234938911Y-101852036D03*
D26*
X231388911Y-101852036D03*
%TD*%
D24*
%TO.C,D33*%
X141536411Y-125125786D03*
X141536411Y-128425786D03*
%TD*%
%TO.C,D38*%
X236786411Y-125125786D03*
X236786411Y-128425786D03*
%TD*%
%TO.C,D49*%
X170111411Y-144175786D03*
X170111411Y-147475786D03*
%TD*%
%TO.C,D58*%
X74861411Y-163225786D03*
X74861411Y-166525786D03*
%TD*%
%TO.C,D39*%
X255836411Y-125125786D03*
X255836411Y-128425786D03*
%TD*%
D37*
%TO.C,C10*%
X328837661Y-117575786D03*
X329797661Y-117575786D03*
%TD*%
D25*
%TO.C,MX39*%
X257741411Y-125982036D03*
D22*
X252661411Y-125982036D03*
D25*
X247581411Y-125982036D03*
D26*
X248851411Y-123442036D03*
D27*
X245301411Y-123442036D03*
X258751411Y-120902036D03*
D26*
X255201411Y-120902036D03*
%TD*%
D25*
%TO.C,MX35*%
X181541411Y-125982036D03*
D22*
X176461411Y-125982036D03*
D25*
X171381411Y-125982036D03*
D26*
X172651411Y-123442036D03*
D27*
X169101411Y-123442036D03*
X182551411Y-120902036D03*
D26*
X179001411Y-120902036D03*
%TD*%
D34*
%TO.C,Q1*%
X67717661Y-93691411D03*
X66767661Y-95566411D03*
X68667661Y-95566411D03*
%TD*%
D24*
%TO.C,D14*%
X326877036Y-82263286D03*
X326877036Y-85563286D03*
%TD*%
D35*
%TO.C,R1*%
X69273911Y-90660161D03*
X70923911Y-90660161D03*
%TD*%
D24*
%TO.C,D53*%
X246311411Y-144175786D03*
X246311411Y-147475786D03*
%TD*%
D25*
%TO.C,MX40*%
X276791411Y-125982036D03*
D22*
X271711411Y-125982036D03*
D25*
X266631411Y-125982036D03*
D26*
X267901411Y-123442036D03*
D27*
X264351411Y-123442036D03*
X277801411Y-120902036D03*
D26*
X274251411Y-120902036D03*
%TD*%
D24*
%TO.C,D9*%
X234500411Y-82263286D03*
X234500411Y-85563286D03*
%TD*%
%TO.C,D17*%
X117723911Y-106075786D03*
X117723911Y-109375786D03*
%TD*%
%TO.C,D25*%
X270123911Y-106075786D03*
X270123911Y-109375786D03*
%TD*%
D25*
%TO.C,MX36*%
X200591411Y-125982036D03*
D22*
X195511411Y-125982036D03*
D25*
X190431411Y-125982036D03*
D26*
X191701411Y-123442036D03*
D27*
X188151411Y-123442036D03*
X201601411Y-120902036D03*
D26*
X198051411Y-120902036D03*
%TD*%
D20*
%TO.C,C9*%
X328067661Y-113595786D03*
X328067661Y-114555786D03*
%TD*%
D24*
%TO.C,D6*%
X177350411Y-82263286D03*
X177350411Y-85563286D03*
%TD*%
%TO.C,D5*%
X151061411Y-82263286D03*
X151061411Y-85563286D03*
%TD*%
D37*
%TO.C,C1*%
X322855488Y-139993613D03*
X323815488Y-139993613D03*
%TD*%
D38*
%TO.C,R4*%
X323088911Y-142257036D03*
X324108911Y-142257036D03*
%TD*%
D24*
%TO.C,D1*%
X74861411Y-82263286D03*
X74861411Y-85563286D03*
%TD*%
%TO.C,D57*%
X341561411Y-144175786D03*
X341561411Y-147475786D03*
%TD*%
D26*
%TO.C,MX62*%
X164713911Y-159002036D03*
D27*
X168263911Y-159002036D03*
X154813911Y-161542036D03*
D26*
X158363911Y-161542036D03*
D25*
X157093911Y-164082036D03*
D22*
X162173911Y-164082036D03*
D25*
X167253911Y-164082036D03*
%TD*%
%TO.C,MX57*%
X343466411Y-145032036D03*
D22*
X338386411Y-145032036D03*
D25*
X333306411Y-145032036D03*
D26*
X334576411Y-142492036D03*
D27*
X331026411Y-142492036D03*
X344476411Y-139952036D03*
D26*
X340926411Y-139952036D03*
%TD*%
D25*
%TO.C,MX28*%
X343466411Y-106932036D03*
D22*
X338386411Y-106932036D03*
D25*
X333306411Y-106932036D03*
D26*
X334576411Y-104392036D03*
D27*
X331026411Y-104392036D03*
X344476411Y-101852036D03*
D26*
X340926411Y-101852036D03*
%TD*%
D19*
%TO.C,C7*%
X323815488Y-138743613D03*
X322855488Y-138743613D03*
%TD*%
D25*
%TO.C,MX61*%
X114231411Y-164082036D03*
D22*
X119311411Y-164082036D03*
D25*
X124391411Y-164082036D03*
D26*
X123121411Y-166622036D03*
D31*
X126671411Y-166622036D03*
X113221411Y-169162036D03*
D26*
X116771411Y-169162036D03*
%TD*%
D24*
%TO.C,D21*%
X193923911Y-106075786D03*
X193923911Y-109375786D03*
%TD*%
D32*
%TO.C,D60*%
X127248911Y-162160161D03*
X127248911Y-158860161D03*
%TD*%
D26*
%TO.C,MX67*%
X288538911Y-159002036D03*
D27*
X292088911Y-159002036D03*
X278638911Y-161542036D03*
D26*
X282188911Y-161542036D03*
D25*
X280918911Y-164082036D03*
D22*
X285998911Y-164082036D03*
D25*
X291078911Y-164082036D03*
%TD*%
%TO.C,MX37*%
X219641411Y-125982036D03*
D22*
X214561411Y-125982036D03*
D25*
X209481411Y-125982036D03*
D26*
X210751411Y-123442036D03*
D27*
X207201411Y-123442036D03*
X220651411Y-120902036D03*
D26*
X217101411Y-120902036D03*
%TD*%
D32*
%TO.C,D65*%
X274489536Y-162160161D03*
X274489536Y-158860161D03*
%TD*%
D24*
%TO.C,D36*%
X198686411Y-125125786D03*
X198686411Y-128425786D03*
%TD*%
D39*
%TO.C,J1*%
X324386411Y-96628911D03*
X325386411Y-96628911D03*
X326386411Y-96628911D03*
X327386411Y-96628911D03*
D40*
X323086411Y-92753911D03*
X328686411Y-92753911D03*
%TD*%
D24*
%TO.C,D68*%
X312986411Y-163225786D03*
X312986411Y-166525786D03*
%TD*%
%TO.C,D12*%
X298698911Y-82263286D03*
X298698911Y-85563286D03*
%TD*%
D25*
%TO.C,MX15*%
X76766411Y-106932036D03*
D22*
X71686411Y-106932036D03*
D25*
X66606411Y-106932036D03*
D26*
X67876411Y-104392036D03*
D27*
X64326411Y-104392036D03*
X77776411Y-101852036D03*
D26*
X74226411Y-101852036D03*
%TD*%
D24*
%TO.C,D4*%
X132011411Y-82263286D03*
X132011411Y-85563286D03*
%TD*%
D38*
%TO.C,R3*%
X325588911Y-142257036D03*
X326608911Y-142257036D03*
%TD*%
D24*
%TO.C,D13*%
X317748911Y-82263286D03*
X317748911Y-85563286D03*
%TD*%
%TO.C,D26*%
X293936411Y-106075786D03*
X293936411Y-109375786D03*
%TD*%
D25*
%TO.C,MX32*%
X124391411Y-125982036D03*
D22*
X119311411Y-125982036D03*
D25*
X114231411Y-125982036D03*
D26*
X115501411Y-123442036D03*
D27*
X111951411Y-123442036D03*
X125401411Y-120902036D03*
D26*
X121851411Y-120902036D03*
%TD*%
D24*
%TO.C,D51*%
X208211411Y-144175786D03*
X208211411Y-147475786D03*
%TD*%
D25*
%TO.C,MX55*%
X286316411Y-145032036D03*
D22*
X281236411Y-145032036D03*
D25*
X276156411Y-145032036D03*
D26*
X277426411Y-142492036D03*
D27*
X273876411Y-142492036D03*
X287326411Y-139952036D03*
D26*
X283776411Y-139952036D03*
%TD*%
D25*
%TO.C,MX44*%
X83910161Y-145032036D03*
D22*
X78830161Y-145032036D03*
D25*
X73750161Y-145032036D03*
D26*
X75020161Y-142492036D03*
D27*
X71470161Y-142492036D03*
X84920161Y-139952036D03*
D26*
X81370161Y-139952036D03*
%TD*%
D41*
%TO.C,C2*%
X329258286Y-125763286D03*
X327708286Y-125763286D03*
%TD*%
D25*
%TO.C,MX27*%
X319653911Y-106932036D03*
D22*
X314573911Y-106932036D03*
D25*
X309493911Y-106932036D03*
D26*
X310763911Y-104392036D03*
D27*
X307213911Y-104392036D03*
X320663911Y-101852036D03*
D26*
X317113911Y-101852036D03*
%TD*%
D24*
%TO.C,D24*%
X251073911Y-106075786D03*
X251073911Y-109375786D03*
%TD*%
D25*
%TO.C,MX66*%
X261868911Y-164082036D03*
D22*
X266948911Y-164082036D03*
D25*
X272028911Y-164082036D03*
D26*
X270758911Y-166622036D03*
D31*
X274308911Y-166622036D03*
X260858911Y-169162036D03*
D26*
X264408911Y-169162036D03*
%TD*%
D24*
%TO.C,D56*%
X310605161Y-144175786D03*
X310605161Y-147475786D03*
%TD*%
D25*
%TO.C,MX26*%
X295841411Y-106932036D03*
D22*
X290761411Y-106932036D03*
D25*
X285681411Y-106932036D03*
D26*
X286951411Y-104392036D03*
D27*
X283401411Y-104392036D03*
X296851411Y-101852036D03*
D26*
X293301411Y-101852036D03*
%TD*%
D25*
%TO.C,MX50*%
X191066411Y-145032036D03*
D22*
X185986411Y-145032036D03*
D25*
X180906411Y-145032036D03*
D26*
X182176411Y-142492036D03*
D27*
X178626411Y-142492036D03*
X192076411Y-139952036D03*
D26*
X188526411Y-139952036D03*
%TD*%
D24*
%TO.C,D32*%
X122486411Y-125125786D03*
X122486411Y-128425786D03*
%TD*%
%TO.C,D10*%
X260598911Y-82263286D03*
X260598911Y-85563286D03*
%TD*%
D25*
%TO.C,MX58*%
X76766411Y-164082036D03*
D22*
X71686411Y-164082036D03*
D25*
X66606411Y-164082036D03*
D26*
X67876411Y-161542036D03*
D27*
X64326411Y-161542036D03*
X77776411Y-159002036D03*
D26*
X74226411Y-159002036D03*
%TD*%
D25*
%TO.C,MX63*%
X195828911Y-164082036D03*
D22*
X190748911Y-164082036D03*
D25*
X185668911Y-164082036D03*
D26*
X186938911Y-161542036D03*
D27*
X183388911Y-161542036D03*
X196838911Y-159002036D03*
D26*
X193288911Y-159002036D03*
%TD*%
D25*
%TO.C,MX10*%
X262503911Y-83119536D03*
D22*
X257423911Y-83119536D03*
D25*
X252343911Y-83119536D03*
D26*
X253613911Y-80579536D03*
D27*
X250063911Y-80579536D03*
X263513911Y-78039536D03*
D26*
X259963911Y-78039536D03*
%TD*%
D24*
%TO.C,D69*%
X341561411Y-163225786D03*
X341561411Y-166525786D03*
%TD*%
D25*
%TO.C,MX4*%
X133916411Y-83119536D03*
D22*
X128836411Y-83119536D03*
D25*
X123756411Y-83119536D03*
D26*
X125026411Y-80579536D03*
D27*
X121476411Y-80579536D03*
X134926411Y-78039536D03*
D26*
X131376411Y-78039536D03*
%TD*%
D22*
%TO.C,S1*%
X143123911Y-155827036D03*
D23*
X143123911Y-171067036D03*
D22*
X238373911Y-155827036D03*
D23*
X238373911Y-171067036D03*
%TD*%
M02*
