M48
; DRILL file {KiCad 8.0.4} date 2024-08-19T01:28:38+0800
; FORMAT={-:-/ absolute / inch / decimal}
; #@! TF.CreationDate,2024-08-19T01:28:38+08:00
; #@! TF.GenerationSoftware,Kicad,Pcbnew,8.0.4
; #@! TF.FileFunction,NonPlated,1,2,NPTH
FMAT,2
INCH
; #@! TA.AperFunction,NonPlated,NPTH,ComponentDrill
T1C0.0689
; #@! TA.AperFunction,NonPlated,NPTH,ComponentDrill
T2C0.1570
%
G90
G05
T1
X2.4348Y-3.2724
X2.5285Y-4.9599
X2.5285Y-5.7099
X2.6223Y-4.2099
X2.6223Y-6.4599
X2.716Y-4.9599
X2.8348Y-3.2724
X2.9035Y-5.7099
X2.9285Y-4.9599
X2.9285Y-5.7099
X3.0223Y-4.2099
X3.0223Y-6.4599
X3.116Y-4.9599
X3.3035Y-5.7099
X3.3723Y-3.2724
X3.3723Y-5.7099
X3.5598Y-4.2099
X3.5598Y-6.4599
X3.7473Y-4.9599
X3.7723Y-3.2724
X3.7723Y-5.7099
X3.9598Y-4.2099
X3.9598Y-6.4599
X4.1223Y-3.2724
X4.1223Y-5.7099
X4.1473Y-4.9599
X4.3098Y-4.2099
X4.3098Y-6.4599
X4.4973Y-4.9599
X4.4973Y-6.4599
X4.5223Y-3.2724
X4.5223Y-5.7099
X4.7098Y-4.2099
X4.7098Y-6.4599
X4.8723Y-3.2724
X4.8723Y-5.7099
X4.8973Y-4.9599
X4.8973Y-6.4599
X5.0598Y-4.2099
X5.2473Y-4.9599
X5.2723Y-3.2724
X5.2723Y-5.7099
X5.4598Y-4.2099
X5.6223Y-3.2724
X5.6223Y-5.7099
X5.6473Y-4.9599
X5.8098Y-4.2099
X5.9973Y-4.9599
X6.0223Y-3.2724
X6.0223Y-5.7099
X6.1848Y-6.4599
X6.2098Y-4.2099
X6.3723Y-5.7099
X6.3973Y-4.9599
X6.5598Y-4.2099
X6.5848Y-6.4599
X6.6573Y-3.2724
X6.7473Y-4.9599
X6.7723Y-5.7099
X6.9598Y-4.2099
X7.0573Y-3.2724
X7.1223Y-5.7099
X7.1473Y-4.9599
X7.3098Y-4.2099
X7.3098Y-6.4599
X7.4073Y-3.2724
X7.4973Y-4.9599
X7.5223Y-5.7099
X7.7098Y-4.2099
X7.7098Y-6.4599
X7.8073Y-3.2724
X7.8723Y-5.7099
X7.8973Y-4.9599
X8.0598Y-4.2099
X8.1573Y-3.2724
X8.2473Y-4.9599
X8.2723Y-5.7099
X8.4348Y-6.4599
X8.4598Y-4.2099
X8.5573Y-3.2724
X8.6223Y-5.7099
X8.6473Y-4.9599
X8.8098Y-4.2099
X8.8348Y-6.4599
X8.9073Y-3.2724
X8.9973Y-4.9599
X9.0223Y-5.7099
X9.2098Y-4.2099
X9.3073Y-3.2724
X9.3723Y-5.7099
X9.3973Y-4.9599
X9.5598Y-4.2099
X9.7473Y-4.9599
X9.7723Y-5.7099
X9.9348Y-3.2724
X9.9598Y-4.2099
X10.1223Y-5.7099
X10.1223Y-6.4599
X10.1473Y-4.9599
X10.3098Y-4.2099
X10.3098Y-6.4599
X10.3348Y-3.2724
X10.4973Y-4.9599
X10.5223Y-5.7099
X10.5223Y-6.4599
X10.6848Y-3.2724
X10.7098Y-4.2099
X10.7098Y-6.4599
X10.8723Y-5.7099
X10.8973Y-4.9599
X11.0598Y-6.4599
X11.0848Y-3.2724
X11.2473Y-4.2099
X11.2723Y-5.7099
X11.4348Y-3.2724
X11.4598Y-6.4599
X11.6473Y-4.2099
X11.716Y-4.9599
X11.8348Y-3.2724
X11.9035Y-5.7099
X11.9973Y-6.4599
X12.116Y-4.9599
X12.1848Y-3.2724
X12.1848Y-4.2099
X12.3035Y-5.7099
X12.3973Y-6.4599
X12.5848Y-3.2724
X12.5848Y-4.2099
X13.1223Y-3.2724
X13.1223Y-4.2099
X13.1223Y-4.9599
X13.1223Y-5.7099
X13.1223Y-6.4599
X13.5223Y-3.2724
X13.5223Y-4.2099
X13.5223Y-4.9599
X13.5223Y-5.7099
X13.5223Y-6.4599
T2
X2.6348Y-3.2724
X2.6348Y-3.2724
X2.6348Y-6.0349
X2.7285Y-4.9599
X2.7285Y-5.7099
X2.8223Y-4.2099
X2.8223Y-6.4599
X2.916Y-4.9599
X3.1035Y-5.7099
X3.5723Y-3.2724
X3.5723Y-5.7099
X3.5723Y-6.0349
X3.7598Y-4.2099
X3.7598Y-6.4599
X3.9473Y-4.9599
X4.3223Y-3.2724
X4.3223Y-5.7099
X4.5098Y-4.2099
X4.5098Y-6.4599
X4.6973Y-4.9599
X4.6973Y-6.4599
X5.0723Y-3.2724
X5.0723Y-5.7099
X5.2598Y-4.2099
X5.2598Y-6.1349
X5.4473Y-4.9599
X5.6348Y-6.1349
X5.6348Y-6.1349
X5.8223Y-3.2724
X5.8223Y-5.7099
X6.0098Y-4.2099
X6.1973Y-4.9599
X6.3848Y-6.4599
X6.5723Y-5.7099
X6.7598Y-4.2099
X6.8573Y-3.2724
X6.9473Y-4.9599
X7.1348Y-6.1349
X7.3223Y-5.7099
X7.5098Y-4.2099
X7.5098Y-6.4599
X7.6073Y-3.2724
X7.6973Y-4.9599
X7.8848Y-6.1349
X8.0723Y-5.7099
X8.2598Y-4.2099
X8.3573Y-3.2724
X8.4473Y-4.9599
X8.6348Y-6.4599
X8.8223Y-5.7099
X9.0098Y-4.2099
X9.1073Y-3.2724
X9.1973Y-4.9599
X9.3848Y-6.1349
X9.3848Y-6.1349
X9.5723Y-5.7099
X9.7598Y-4.2099
X9.7598Y-6.1349
X9.9473Y-4.9599
X10.1348Y-3.2724
X10.3223Y-5.7099
X10.3223Y-6.4599
X10.5098Y-4.2099
X10.5098Y-6.4599
X10.6973Y-4.9599
X10.8848Y-3.2724
X11.0723Y-5.7099
X11.2598Y-6.4599
X11.4473Y-4.2099
X11.4473Y-4.6349
X11.6348Y-3.2724
X11.916Y-4.9599
X12.1035Y-5.7099
X12.1973Y-6.4599
X12.3848Y-3.2724
X12.3848Y-4.2099
X12.3848Y-4.6349
X13.3223Y-3.2724
X13.3223Y-3.2724
X13.3223Y-4.2099
X13.3223Y-4.9599
X13.3223Y-5.7099
X13.3223Y-6.4599
M30
