M48
; DRILL file {KiCad 8.0.4} date 2024-08-19T01:28:38+0800
; FORMAT={-:-/ absolute / inch / decimal}
; #@! TF.CreationDate,2024-08-19T01:28:38+08:00
; #@! TF.GenerationSoftware,Kicad,Pcbnew,8.0.4
; #@! TF.FileFunction,Plated,1,2,PTH
FMAT,2
INCH
; #@! TA.AperFunction,Plated,PTH,ViaDrill
T1C0.0157
; #@! TA.AperFunction,Plated,PTH,ComponentDrill
T2C0.1181
; #@! TA.AperFunction,Plated,PTH,ComponentDrill
T3C0.1200
%
G90
G05
T1
X2.4004Y-4.9599
X2.4494Y-5.0558
X2.6348Y-4.6162
X2.7285Y-3.5224
X2.7285Y-4.8193
X2.7598Y-4.6162
X2.9942Y-4.5849
X3.0254Y-4.6474
X3.1487Y-4.571
X3.1504Y-3.6787
X3.1504Y-3.7255
X3.1504Y-4.3974
X3.2285Y-4.7568
X3.4785Y-4.5537
X3.8848Y-4.538
X4.2754Y-4.3974
X4.3692Y-5.1474
X4.4473Y-5.1005
X4.4942Y-4.538
X4.9317Y-4.6318
X5.0567Y-4.3974
X5.1192Y-5.1474
X5.1973Y-5.1162
X5.3379Y-4.538
X5.6817Y-4.6318
X5.791Y-4.3974
X5.8692Y-5.1474
X5.9473Y-5.1005
X6.0567Y-4.6162
X6.4317Y-4.6474
X6.541Y-4.3974
X6.6192Y-5.1474
X6.6973Y-5.1005
X6.8692Y-4.6318
X6.8848Y-5.3974
X7.1973Y-4.8662
X7.291Y-4.3974
X7.3692Y-5.1474
X7.4473Y-5.1005
X7.6348Y-4.6318
X7.6504Y-5.7099
X7.9473Y-4.8974
X8.041Y-4.3974
X8.1192Y-5.1474
X8.1973Y-5.1005
X8.3848Y-4.6474
X8.4004Y-5.3974
X8.6973Y-4.8662
X8.8067Y-4.3974
X8.8848Y-5.163
X8.9317Y-5.1005
X9.0567Y-4.6318
X9.2442Y-5.4443
X9.4317Y-4.8662
X9.5254Y-4.3974
X9.6192Y-5.1474
X9.6817Y-5.1005
X9.9317Y-4.6162
X9.9942Y-5.4443
X10.2598Y-4.8818
X10.4004Y-5.1787
X10.5254Y-5.1318
X10.6817Y-4.6474
X10.7129Y-5.4912
X10.9317Y-5.1162
X10.9473Y-4.8818
X10.9785Y-5.1005
X11.041Y-4.3974
X11.1817Y-5.163
X11.2754Y-4.788
X11.4473Y-5.7099
X11.5879Y-5.6162
X11.6348Y-5.0537
X11.6348Y-6.6318
X11.6973Y-5.8037
X11.6973Y-6.6318
X12.0098Y-5.2099
X12.4785Y-5.0971
X12.5209Y-5.2145
X12.5254Y-4.6474
X12.5254Y-5.663
X12.6122Y-4.9806
X12.6348Y-4.538
X12.6504Y-4.3193
X12.6504Y-5.6787
X12.6515Y-5.0396
X12.6608Y-5.5608
X12.6707Y-5.5017
X12.6973Y-4.5849
X12.7874Y-5.5495
X12.791Y-4.538
X12.8848Y-4.538
X12.8976Y-5.6204
X12.9271Y-5.3743
X12.9317Y-4.8974
X12.9473Y-4.2255
X12.9473Y-4.6787
X12.9567Y-5.0692
X12.9665Y-5.4727
X13.0098Y-3.3505
X13.0098Y-4.6005
X13.041Y-4.3974
X13.041Y-4.6787
X13.0551Y-5.2463
X13.0879Y-3.8818
X13.1973Y-5.2412
X13.2285Y-4.3193
X13.2598Y-3.6005
X13.291Y-3.538
X13.4004Y-3.6787
X13.5254Y-6.6943
X13.5254Y-6.7412
X13.541Y-5.1318
X13.5567Y-5.1787
X13.5567Y-5.2412
X13.5879Y-5.8974
X13.6348Y-5.2568
T2
X2.4848Y-3.1724
X2.5785Y-4.8599
X2.6285Y-5.9099
X2.6723Y-4.1099
X2.6723Y-6.3599
X2.7348Y-3.0724
X2.816Y-5.1599
X2.8285Y-4.7599
X2.8785Y-5.8099
X2.9223Y-4.0099
X2.9223Y-6.2599
X2.9535Y-5.6099
X3.066Y-5.0599
X3.2035Y-5.5099
X3.4223Y-3.1724
X3.4723Y-5.9099
X3.6098Y-4.1099
X3.6098Y-6.3599
X3.6723Y-3.0724
X3.7223Y-5.8099
X3.7973Y-4.8599
X3.8598Y-4.0099
X3.8598Y-6.2599
X4.0473Y-4.7599
X4.1723Y-3.1724
X4.1723Y-5.6099
X4.3598Y-4.1099
X4.3598Y-6.3599
X4.4223Y-3.0724
X4.4223Y-5.5099
X4.5473Y-4.8599
X4.5973Y-6.6599
X4.6098Y-4.0099
X4.6098Y-6.2599
X4.7973Y-4.7599
X4.8473Y-6.5599
X4.9223Y-3.1724
X4.9223Y-5.6099
X5.1098Y-4.1099
X5.1723Y-3.0724
X5.1723Y-5.5099
X5.2973Y-4.8599
X5.3598Y-4.0099
X5.5473Y-4.7599
X5.6723Y-3.1724
X5.6723Y-5.6099
X5.8598Y-4.1099
X5.9223Y-3.0724
X5.9223Y-5.5099
X6.0473Y-4.8599
X6.1098Y-4.0099
X6.2348Y-6.3599
X6.2973Y-4.7599
X6.4223Y-5.6099
X6.4848Y-6.2599
X6.6098Y-4.1099
X6.6723Y-5.5099
X6.7073Y-3.1724
X6.7973Y-4.8599
X6.8598Y-4.0099
X6.9573Y-3.0724
X7.0473Y-4.7599
X7.1723Y-5.6099
X7.3598Y-4.1099
X7.3598Y-6.3599
X7.4223Y-5.5099
X7.4573Y-3.1724
X7.5473Y-4.8599
X7.6098Y-4.0099
X7.6098Y-6.2599
X7.7073Y-3.0724
X7.7973Y-4.7599
X7.9223Y-5.6099
X8.1098Y-4.1099
X8.1723Y-5.5099
X8.2073Y-3.1724
X8.2973Y-4.8599
X8.3598Y-4.0099
X8.4573Y-3.0724
X8.4848Y-6.3599
X8.5473Y-4.7599
X8.6723Y-5.6099
X8.7348Y-6.2599
X8.8598Y-4.1099
X8.9223Y-5.5099
X8.9573Y-3.1724
X9.0473Y-4.8599
X9.1098Y-4.0099
X9.2073Y-3.0724
X9.2973Y-4.7599
X9.4223Y-5.6099
X9.6098Y-4.1099
X9.6723Y-5.5099
X9.7973Y-4.8599
X9.8598Y-4.0099
X9.9848Y-3.1724
X10.0473Y-4.7599
X10.1723Y-5.6099
X10.1723Y-6.3599
X10.2348Y-3.0724
X10.3598Y-4.1099
X10.4098Y-6.6599
X10.4223Y-5.5099
X10.4223Y-6.2599
X10.5473Y-4.8599
X10.6098Y-4.0099
X10.6598Y-6.5599
X10.7348Y-3.1724
X10.7973Y-4.7599
X10.9223Y-5.6099
X10.9848Y-3.0724
X11.1098Y-6.3599
X11.1723Y-5.5099
X11.2973Y-4.1099
X11.3598Y-6.2599
X11.4848Y-3.1724
X11.5473Y-4.0099
X11.7348Y-3.0724
X11.766Y-4.8599
X11.9535Y-5.6099
X12.016Y-4.7599
X12.0473Y-6.3599
X12.2035Y-5.5099
X12.2348Y-3.1724
X12.2348Y-4.1099
X12.2973Y-6.2599
X12.4848Y-3.0724
X12.4848Y-4.0099
X13.1723Y-3.1724
X13.1723Y-4.1099
X13.1723Y-4.8599
X13.1723Y-5.6099
X13.1723Y-6.3599
X13.4223Y-3.0724
X13.4223Y-4.0099
X13.4223Y-4.7599
X13.4223Y-5.5099
X13.4223Y-6.2599
T3
X2.6348Y-5.4349
X3.5723Y-5.4349
X5.2598Y-6.7349
X5.6348Y-6.7349
X5.6348Y-6.7349
X7.1348Y-6.7349
X7.8848Y-6.7349
X9.3848Y-6.7349
X9.3848Y-6.7349
X9.7598Y-6.7349
X11.4473Y-5.2349
X12.3848Y-5.2349
M30
