%TF.GenerationSoftware,KiCad,Pcbnew,8.0.4*%
%TF.CreationDate,2024-08-19T01:28:38+08:00*%
%TF.ProjectId,cloak-xt,636c6f61-6b2d-4787-942e-6b696361645f,rev?*%
%TF.SameCoordinates,Original*%
%TF.FileFunction,Profile,NP*%
%FSLAX46Y46*%
G04 Gerber Fmt 4.6, Leading zero omitted, Abs format (unit mm)*
G04 Created by KiCad (PCBNEW 8.0.4) date 2024-08-19 01:28:38*
%MOMM*%
%LPD*%
G01*
G04 APERTURE LIST*
%TA.AperFunction,Profile*%
%ADD10C,0.100000*%
%TD*%
G04 APERTURE END LIST*
D10*
X57795786Y-76785161D02*
G75*
G02*
X59795786Y-74785186I2000014J-39D01*
G01*
X345514536Y-172813286D02*
X59795786Y-172813286D01*
X59795786Y-74785161D02*
X345514536Y-74785161D01*
X345514536Y-74785161D02*
G75*
G02*
X347514539Y-76785161I64J-1999939D01*
G01*
X347514536Y-170813286D02*
G75*
G02*
X345514536Y-172813336I-2000036J-14D01*
G01*
X347514536Y-76785161D02*
X347514536Y-170813286D01*
X57795786Y-170813286D02*
X57795786Y-76785161D01*
X59795786Y-172813286D02*
G75*
G02*
X57795714Y-170813286I-86J1999986D01*
G01*
%TO.C,LED10*%
X102014535Y-131800502D02*
X102014535Y-130394818D01*
X99520084Y-132597660D02*
X101108988Y-132597660D01*
X101108989Y-129597661D02*
X99520084Y-129597661D01*
X98614537Y-130394818D02*
X98614537Y-131800502D01*
X102014535Y-130394817D02*
G75*
G02*
X102064020Y-130177940I499990J1D01*
G01*
X101361247Y-129529362D02*
G75*
G02*
X102064019Y-130177940I252258J-431700D01*
G01*
X102064020Y-132017380D02*
G75*
G02*
X102014535Y-131800502I450505J216876D01*
G01*
X102064020Y-132017379D02*
G75*
G02*
X101361247Y-132665959I-450514J-216880D01*
G01*
X101108988Y-132597660D02*
G75*
G02*
X101361247Y-132665959I-2J-500009D01*
G01*
X101361247Y-129529362D02*
G75*
G02*
X101108989Y-129597661I-252261J431710D01*
G01*
X99267826Y-132665959D02*
G75*
G02*
X99520084Y-132597661I252260J-431712D01*
G01*
X99520083Y-129597660D02*
G75*
G02*
X99267825Y-129529361I3J500009D01*
G01*
X98565052Y-130177940D02*
G75*
G02*
X99267825Y-129529361I450514J216879D01*
G01*
X98565052Y-130177940D02*
G75*
G02*
X98614539Y-130394818I-450506J-216881D01*
G01*
X99267825Y-132665957D02*
G75*
G02*
X98565052Y-132017380I-252258J431700D01*
G01*
X98614537Y-131800503D02*
G75*
G02*
X98565036Y-132017372I-500001J42D01*
G01*
%TO.C,LED4*%
X216314535Y-131800502D02*
X216314535Y-130394818D01*
X213820084Y-132597660D02*
X215408988Y-132597660D01*
X215408989Y-129597661D02*
X213820084Y-129597661D01*
X212914537Y-130394818D02*
X212914537Y-131800502D01*
X216314535Y-130394817D02*
G75*
G02*
X216364020Y-130177940I499990J1D01*
G01*
X215661247Y-129529362D02*
G75*
G02*
X216364019Y-130177940I252258J-431700D01*
G01*
X216364020Y-132017380D02*
G75*
G02*
X216314535Y-131800502I450505J216876D01*
G01*
X216364020Y-132017379D02*
G75*
G02*
X215661247Y-132665959I-450514J-216880D01*
G01*
X215408988Y-132597660D02*
G75*
G02*
X215661247Y-132665959I-2J-500009D01*
G01*
X215661247Y-129529362D02*
G75*
G02*
X215408989Y-129597661I-252261J431710D01*
G01*
X213567826Y-132665959D02*
G75*
G02*
X213820084Y-132597661I252260J-431712D01*
G01*
X213820083Y-129597660D02*
G75*
G02*
X213567825Y-129529361I3J500009D01*
G01*
X212865052Y-130177940D02*
G75*
G02*
X213567825Y-129529361I450514J216879D01*
G01*
X212865052Y-130177940D02*
G75*
G02*
X212914539Y-130394818I-450506J-216881D01*
G01*
X213567825Y-132665957D02*
G75*
G02*
X212865052Y-132017380I-252258J431700D01*
G01*
X212914537Y-131800503D02*
G75*
G02*
X212865036Y-132017372I-500001J42D01*
G01*
%TO.C,LED3*%
X235311410Y-131844252D02*
X235311410Y-130438568D01*
X232816959Y-132641410D02*
X234405863Y-132641410D01*
X234405864Y-129641411D02*
X232816959Y-129641411D01*
X231911412Y-130438568D02*
X231911412Y-131844252D01*
X235311410Y-130438567D02*
G75*
G02*
X235360895Y-130221690I499990J1D01*
G01*
X234658122Y-129573112D02*
G75*
G02*
X235360894Y-130221690I252258J-431700D01*
G01*
X235360895Y-132061130D02*
G75*
G02*
X235311410Y-131844252I450505J216876D01*
G01*
X235360895Y-132061129D02*
G75*
G02*
X234658122Y-132709709I-450514J-216880D01*
G01*
X234405863Y-132641410D02*
G75*
G02*
X234658122Y-132709709I-2J-500009D01*
G01*
X234658122Y-129573112D02*
G75*
G02*
X234405864Y-129641411I-252261J431710D01*
G01*
X232564701Y-132709709D02*
G75*
G02*
X232816959Y-132641411I252260J-431712D01*
G01*
X232816958Y-129641410D02*
G75*
G02*
X232564700Y-129573111I3J500009D01*
G01*
X231861927Y-130221690D02*
G75*
G02*
X232564700Y-129573111I450514J216879D01*
G01*
X231861927Y-130221690D02*
G75*
G02*
X231911414Y-130438568I-450506J-216881D01*
G01*
X232564700Y-132709707D02*
G75*
G02*
X231861927Y-132061130I-252258J431700D01*
G01*
X231911412Y-131844253D02*
G75*
G02*
X231861911Y-132061122I-500001J42D01*
G01*
%TO.C,LED2*%
X254361410Y-131844252D02*
X254361410Y-130438568D01*
X251866959Y-132641410D02*
X253455863Y-132641410D01*
X253455864Y-129641411D02*
X251866959Y-129641411D01*
X250961412Y-130438568D02*
X250961412Y-131844252D01*
X254361410Y-130438567D02*
G75*
G02*
X254410895Y-130221690I499990J1D01*
G01*
X253708122Y-129573112D02*
G75*
G02*
X254410894Y-130221690I252258J-431700D01*
G01*
X254410895Y-132061130D02*
G75*
G02*
X254361410Y-131844252I450505J216876D01*
G01*
X254410895Y-132061129D02*
G75*
G02*
X253708122Y-132709709I-450514J-216880D01*
G01*
X253455863Y-132641410D02*
G75*
G02*
X253708122Y-132709709I-2J-500009D01*
G01*
X253708122Y-129573112D02*
G75*
G02*
X253455864Y-129641411I-252261J431710D01*
G01*
X251614701Y-132709709D02*
G75*
G02*
X251866959Y-132641411I252260J-431712D01*
G01*
X251866958Y-129641410D02*
G75*
G02*
X251614700Y-129573111I3J500009D01*
G01*
X250911927Y-130221690D02*
G75*
G02*
X251614700Y-129573111I450514J216879D01*
G01*
X250911927Y-130221690D02*
G75*
G02*
X250961414Y-130438568I-450506J-216881D01*
G01*
X251614700Y-132709707D02*
G75*
G02*
X250911927Y-132061130I-252258J431700D01*
G01*
X250961412Y-131844253D02*
G75*
G02*
X250911911Y-132061122I-500001J42D01*
G01*
%TO.C,LED9*%
X121011410Y-131844252D02*
X121011410Y-130438568D01*
X118516959Y-132641410D02*
X120105863Y-132641410D01*
X120105864Y-129641411D02*
X118516959Y-129641411D01*
X117611412Y-130438568D02*
X117611412Y-131844252D01*
X121011410Y-130438567D02*
G75*
G02*
X121060895Y-130221690I499990J1D01*
G01*
X120358122Y-129573112D02*
G75*
G02*
X121060894Y-130221690I252258J-431700D01*
G01*
X121060895Y-132061130D02*
G75*
G02*
X121011410Y-131844252I450505J216876D01*
G01*
X121060895Y-132061129D02*
G75*
G02*
X120358122Y-132709709I-450514J-216880D01*
G01*
X120105863Y-132641410D02*
G75*
G02*
X120358122Y-132709709I-2J-500009D01*
G01*
X120358122Y-129573112D02*
G75*
G02*
X120105864Y-129641411I-252261J431710D01*
G01*
X118264701Y-132709709D02*
G75*
G02*
X118516959Y-132641411I252260J-431712D01*
G01*
X118516958Y-129641410D02*
G75*
G02*
X118264700Y-129573111I3J500009D01*
G01*
X117561927Y-130221690D02*
G75*
G02*
X118264700Y-129573111I450514J216879D01*
G01*
X117561927Y-130221690D02*
G75*
G02*
X117611414Y-130438568I-450506J-216881D01*
G01*
X118264700Y-132709707D02*
G75*
G02*
X117561927Y-132061130I-252258J431700D01*
G01*
X117611412Y-131844253D02*
G75*
G02*
X117561911Y-132061122I-500001J42D01*
G01*
%TO.C,LED12*%
X65245502Y-129441412D02*
X63839818Y-129441412D01*
X66042660Y-131935863D02*
X66042660Y-130346959D01*
X63042661Y-130346958D02*
X63042661Y-131935863D01*
X63839818Y-132841410D02*
X65245502Y-132841410D01*
X63839817Y-129441412D02*
G75*
G02*
X63622940Y-129391927I-1J499990D01*
G01*
X62974362Y-130094700D02*
G75*
G02*
X63622940Y-129391926I431700J252259D01*
G01*
X65462380Y-129391927D02*
G75*
G02*
X65245502Y-129441412I-216876J450505D01*
G01*
X65462379Y-129391927D02*
G75*
G02*
X66110959Y-130094700I216880J-450514D01*
G01*
X66042660Y-130346959D02*
G75*
G02*
X66110959Y-130094700I500009J-2D01*
G01*
X62974362Y-130094700D02*
G75*
G02*
X63042661Y-130346958I-431710J-252261D01*
G01*
X66110959Y-132188121D02*
G75*
G02*
X66042661Y-131935863I431712J252260D01*
G01*
X63042660Y-131935864D02*
G75*
G02*
X62974361Y-132188122I-500009J3D01*
G01*
X63622940Y-132890895D02*
G75*
G02*
X62974361Y-132188122I-216879J450514D01*
G01*
X63622940Y-132890895D02*
G75*
G02*
X63839818Y-132841408I216881J-450506D01*
G01*
X66110957Y-132188122D02*
G75*
G02*
X65462380Y-132890895I-431700J-252258D01*
G01*
X65245503Y-132841410D02*
G75*
G02*
X65462372Y-132890911I-42J-500001D01*
G01*
%TO.C,LED11*%
X78567945Y-122469535D02*
X79973629Y-122469535D01*
X77770787Y-119975084D02*
X77770787Y-121563988D01*
X80770786Y-121563989D02*
X80770786Y-119975084D01*
X79973629Y-119069537D02*
X78567945Y-119069537D01*
X79973630Y-122469535D02*
G75*
G02*
X80190507Y-122519020I1J-499990D01*
G01*
X80839085Y-121816247D02*
G75*
G02*
X80190507Y-122519021I-431700J-252259D01*
G01*
X78351067Y-122519020D02*
G75*
G02*
X78567945Y-122469535I216876J-450505D01*
G01*
X78351068Y-122519020D02*
G75*
G02*
X77702488Y-121816247I-216880J450514D01*
G01*
X77770787Y-121563988D02*
G75*
G02*
X77702488Y-121816247I-500009J2D01*
G01*
X80839085Y-121816247D02*
G75*
G02*
X80770786Y-121563989I431710J252261D01*
G01*
X77702488Y-119722826D02*
G75*
G02*
X77770786Y-119975084I-431712J-252260D01*
G01*
X80770787Y-119975083D02*
G75*
G02*
X80839086Y-119722825I500009J-3D01*
G01*
X80190507Y-119020052D02*
G75*
G02*
X80839086Y-119722825I216879J-450514D01*
G01*
X80190507Y-119020052D02*
G75*
G02*
X79973629Y-119069539I-216881J450506D01*
G01*
X77702490Y-119722825D02*
G75*
G02*
X78351067Y-119020052I431700J252258D01*
G01*
X78567944Y-119069537D02*
G75*
G02*
X78351075Y-119020036I42J500001D01*
G01*
%TO.C,LED8*%
X140114535Y-131800502D02*
X140114535Y-130394818D01*
X137620084Y-132597660D02*
X139208988Y-132597660D01*
X139208989Y-129597661D02*
X137620084Y-129597661D01*
X136714537Y-130394818D02*
X136714537Y-131800502D01*
X140114535Y-130394817D02*
G75*
G02*
X140164020Y-130177940I499990J1D01*
G01*
X139461247Y-129529362D02*
G75*
G02*
X140164019Y-130177940I252258J-431700D01*
G01*
X140164020Y-132017380D02*
G75*
G02*
X140114535Y-131800502I450505J216876D01*
G01*
X140164020Y-132017379D02*
G75*
G02*
X139461247Y-132665959I-450514J-216880D01*
G01*
X139208988Y-132597660D02*
G75*
G02*
X139461247Y-132665959I-2J-500009D01*
G01*
X139461247Y-129529362D02*
G75*
G02*
X139208989Y-129597661I-252261J431710D01*
G01*
X137367826Y-132665959D02*
G75*
G02*
X137620084Y-132597661I252260J-431712D01*
G01*
X137620083Y-129597660D02*
G75*
G02*
X137367825Y-129529361I3J500009D01*
G01*
X136665052Y-130177940D02*
G75*
G02*
X137367825Y-129529361I450514J216879D01*
G01*
X136665052Y-130177940D02*
G75*
G02*
X136714539Y-130394818I-450506J-216881D01*
G01*
X137367825Y-132665957D02*
G75*
G02*
X136665052Y-132017380I-252258J431700D01*
G01*
X136714537Y-131800503D02*
G75*
G02*
X136665036Y-132017372I-500001J42D01*
G01*
%TO.C,LED7*%
X159164535Y-131800502D02*
X159164535Y-130394818D01*
X156670084Y-132597660D02*
X158258988Y-132597660D01*
X158258989Y-129597661D02*
X156670084Y-129597661D01*
X155764537Y-130394818D02*
X155764537Y-131800502D01*
X159164535Y-130394817D02*
G75*
G02*
X159214020Y-130177940I499990J1D01*
G01*
X158511247Y-129529362D02*
G75*
G02*
X159214019Y-130177940I252258J-431700D01*
G01*
X159214020Y-132017380D02*
G75*
G02*
X159164535Y-131800502I450505J216876D01*
G01*
X159214020Y-132017379D02*
G75*
G02*
X158511247Y-132665959I-450514J-216880D01*
G01*
X158258988Y-132597660D02*
G75*
G02*
X158511247Y-132665959I-2J-500009D01*
G01*
X158511247Y-129529362D02*
G75*
G02*
X158258989Y-129597661I-252261J431710D01*
G01*
X156417826Y-132665959D02*
G75*
G02*
X156670084Y-132597661I252260J-431712D01*
G01*
X156670083Y-129597660D02*
G75*
G02*
X156417825Y-129529361I3J500009D01*
G01*
X155715052Y-130177940D02*
G75*
G02*
X156417825Y-129529361I450514J216879D01*
G01*
X155715052Y-130177940D02*
G75*
G02*
X155764539Y-130394818I-450506J-216881D01*
G01*
X156417825Y-132665957D02*
G75*
G02*
X155715052Y-132017380I-252258J431700D01*
G01*
X155764537Y-131800503D02*
G75*
G02*
X155715036Y-132017372I-500001J42D01*
G01*
%TO.C,LED6*%
X178214535Y-131800502D02*
X178214535Y-130394818D01*
X175720084Y-132597660D02*
X177308988Y-132597660D01*
X177308989Y-129597661D02*
X175720084Y-129597661D01*
X174814537Y-130394818D02*
X174814537Y-131800502D01*
X178214535Y-130394817D02*
G75*
G02*
X178264020Y-130177940I499990J1D01*
G01*
X177561247Y-129529362D02*
G75*
G02*
X178264019Y-130177940I252258J-431700D01*
G01*
X178264020Y-132017380D02*
G75*
G02*
X178214535Y-131800502I450505J216876D01*
G01*
X178264020Y-132017379D02*
G75*
G02*
X177561247Y-132665959I-450514J-216880D01*
G01*
X177308988Y-132597660D02*
G75*
G02*
X177561247Y-132665959I-2J-500009D01*
G01*
X177561247Y-129529362D02*
G75*
G02*
X177308989Y-129597661I-252261J431710D01*
G01*
X175467826Y-132665959D02*
G75*
G02*
X175720084Y-132597661I252260J-431712D01*
G01*
X175720083Y-129597660D02*
G75*
G02*
X175467825Y-129529361I3J500009D01*
G01*
X174765052Y-130177940D02*
G75*
G02*
X175467825Y-129529361I450514J216879D01*
G01*
X174765052Y-130177940D02*
G75*
G02*
X174814539Y-130394818I-450506J-216881D01*
G01*
X175467825Y-132665957D02*
G75*
G02*
X174765052Y-132017380I-252258J431700D01*
G01*
X174814537Y-131800503D02*
G75*
G02*
X174765036Y-132017372I-500001J42D01*
G01*
%TO.C,LED5*%
X197264535Y-131800502D02*
X197264535Y-130394818D01*
X194770084Y-132597660D02*
X196358988Y-132597660D01*
X196358989Y-129597661D02*
X194770084Y-129597661D01*
X193864537Y-130394818D02*
X193864537Y-131800502D01*
X197264535Y-130394817D02*
G75*
G02*
X197314020Y-130177940I499990J1D01*
G01*
X196611247Y-129529362D02*
G75*
G02*
X197314019Y-130177940I252258J-431700D01*
G01*
X197314020Y-132017380D02*
G75*
G02*
X197264535Y-131800502I450505J216876D01*
G01*
X197314020Y-132017379D02*
G75*
G02*
X196611247Y-132665959I-450514J-216880D01*
G01*
X196358988Y-132597660D02*
G75*
G02*
X196611247Y-132665959I-2J-500009D01*
G01*
X196611247Y-129529362D02*
G75*
G02*
X196358989Y-129597661I-252261J431710D01*
G01*
X194517826Y-132665959D02*
G75*
G02*
X194770084Y-132597661I252260J-431712D01*
G01*
X194770083Y-129597660D02*
G75*
G02*
X194517825Y-129529361I3J500009D01*
G01*
X193815052Y-130177940D02*
G75*
G02*
X194517825Y-129529361I450514J216879D01*
G01*
X193815052Y-130177940D02*
G75*
G02*
X193864539Y-130394818I-450506J-216881D01*
G01*
X194517825Y-132665957D02*
G75*
G02*
X193815052Y-132017380I-252258J431700D01*
G01*
X193864537Y-131800503D02*
G75*
G02*
X193815036Y-132017372I-500001J42D01*
G01*
%TO.C,LED1*%
X273464535Y-131800504D02*
X273464535Y-130394820D01*
X270970083Y-132597661D02*
X272558988Y-132597661D01*
X272558988Y-129597662D02*
X270970084Y-129597662D01*
X270064537Y-130394820D02*
X270064537Y-131800504D01*
X273464535Y-130394819D02*
G75*
G02*
X273514020Y-130177942I499990J1D01*
G01*
X272811247Y-129529365D02*
G75*
G02*
X273514020Y-130177942I252258J-431700D01*
G01*
X273514020Y-132017382D02*
G75*
G02*
X273464535Y-131800504I450505J216876D01*
G01*
X273514020Y-132017382D02*
G75*
G02*
X272811247Y-132665961I-450515J-216878D01*
G01*
X272558989Y-132597662D02*
G75*
G02*
X272811247Y-132665961I-3J-500009D01*
G01*
X272811246Y-129529363D02*
G75*
G02*
X272558988Y-129597662I-252261J431710D01*
G01*
X270717825Y-132665960D02*
G75*
G02*
X270970083Y-132597661I252261J-431711D01*
G01*
X270970084Y-129597662D02*
G75*
G02*
X270717825Y-129529363I2J500011D01*
G01*
X270015052Y-130177943D02*
G75*
G02*
X270717826Y-129529360I450514J216882D01*
G01*
X270015052Y-130177942D02*
G75*
G02*
X270064538Y-130394820I-450506J-216879D01*
G01*
X270717825Y-132665960D02*
G75*
G02*
X270015052Y-132017382I-252258J431701D01*
G01*
X270064537Y-131800505D02*
G75*
G02*
X270015035Y-132017374I-500001J44D01*
G01*
%TD*%
M02*
